<svg width="20" height="20" viewBox="0 0 20 20" fill="none" xmlns="http://www.w3.org/2000/svg">
<path d="M11.6667 14.1667C11.6667 13.9167 11.75 13.7501 11.9167 13.5834L16.0833 9.41675C16.4167 9.08341 16.9167 9.08341 17.25 9.41675C17.5833 9.75008 17.5833 10.2501 17.25 10.5834L13.0833 14.7501C12.75 15.0834 12.25 15.0834 11.9167 14.7501C11.75 14.5834 11.6667 14.4167 11.6667 14.1667Z" fill="black"/>
<path d="M11.6667 5.83333C11.6667 5.58333 11.75 5.41667 11.9167 5.25C12.25 4.91667 12.75 4.91667 13.0833 5.25L17.25 9.41667C17.5833 9.75 17.5833 10.25 17.25 10.5833C16.9167 10.9167 16.4167 10.9167 16.0833 10.5833L11.9167 6.41667C11.75 6.25 11.6667 6.08333 11.6667 5.83333Z" fill="black"/>
<path d="M2.5 10.0001C2.5 9.50008 2.83333 9.16675 3.33333 9.16675H16.6667C17.1667 9.16675 17.5 9.50008 17.5 10.0001C17.5 10.5001 17.1667 10.8334 16.6667 10.8334H3.33333C2.83333 10.8334 2.5 10.5001 2.5 10.0001Z" fill="black"/>
</svg>
