<svg width="50" height="50" viewBox="0 0 50 50" fill="none" xmlns="http://www.w3.org/2000/svg">
<g clip-path="url(#clip0_23_3318)">
<path d="M15.8877 31.1086C17.4747 31.1087 18.7764 32.4058 18.7764 33.9299C18.7762 35.454 17.4747 36.7512 15.8877 36.7512C14.3007 36.7512 12.9991 35.454 12.999 33.9299C12.999 32.4058 14.3006 31.1086 15.8877 31.1086ZM15.8877 15.0364C18.4795 15.0364 20.5957 17.1334 20.5957 19.6438C20.5956 22.1541 18.4794 24.2512 15.8877 24.2512C13.2959 24.2512 11.1798 22.1541 11.1797 19.6438C11.1797 17.1334 13.2958 15.0364 15.8877 15.0364ZM15.8877 17.1077C14.4605 17.1077 13.3184 18.2092 13.3184 19.6438C13.3185 21.0783 14.4606 22.179 15.8877 22.179C17.3148 22.1789 18.4569 21.0782 18.457 19.6438C18.457 18.2092 17.3148 17.1077 15.8877 17.1077ZM30.4424 9.67896C33.0341 9.67916 35.1494 11.7761 35.1494 14.2864C35.1493 16.7966 33.034 18.8936 30.4424 18.8938C27.8506 18.8938 25.7344 16.7967 25.7344 14.2864C25.7344 11.776 27.8505 9.67896 30.4424 9.67896ZM30.4424 11.7502C29.0152 11.7502 27.873 12.8518 27.873 14.2864C27.8731 15.7209 29.0152 16.8225 30.4424 16.8225C31.8694 16.8223 33.0117 15.7208 33.0117 14.2864C33.0117 12.8519 31.8694 11.7504 30.4424 11.7502Z" stroke="black" stroke-width="1.5"/>
<path d="M22.1206 0.973389C24.0674 0.712504 26.045 0.680334 28.0132 0.880615L28.856 0.980225C33.0663 1.55221 37.0533 3.17724 40.4282 5.69312L41.0952 6.20776C44.3868 8.84174 46.922 12.258 48.4712 16.1257L48.7681 16.905V16.906C49.1875 18.0633 49.3353 19.2979 49.2017 20.5164L49.1714 20.7595C49.0001 21.9761 48.5534 23.1416 47.8628 24.1638L47.7212 24.3669C47.0456 25.3037 46.178 26.0893 45.1743 26.6746L44.7358 26.9128C43.6944 27.4398 42.553 27.7441 41.3853 27.8093L40.8843 27.822H34.0737C32.6911 27.8187 31.3516 28.272 30.2622 29.1013L30.0474 29.2722C28.9902 30.1532 28.2646 31.356 27.9829 32.6882L27.9321 32.9568C27.7101 34.3061 27.9545 35.6809 28.6206 36.8718L28.7603 37.1082C29.5296 38.3491 30.7199 39.2823 32.1235 39.7351L32.1392 39.741L32.1548 39.7449C32.1619 39.7468 32.1692 39.7486 32.1763 39.7507C33.0329 40.0651 33.7736 40.6125 34.313 41.3289V41.3279C34.8334 42.0195 35.1303 42.8623 35.1948 43.7429L35.1958 43.7595L35.1978 43.7761C35.3074 44.7137 35.1116 45.6575 34.6265 46.4529L34.5249 46.6101C33.9898 47.4019 33.1945 47.9944 32.269 48.2947L32.0825 48.3513H32.0815C30.1939 48.8781 28.2519 49.1766 26.2944 49.239L25.4556 49.2517H25.4536C21.2034 49.25 17.0317 48.1717 13.3374 46.1306L12.605 45.7097C8.97645 43.5414 5.98633 40.4968 3.9126 36.8728L3.51025 36.1404C1.55999 32.4404 0.618126 28.3139 0.765137 24.1609L0.809082 23.3308C1.10154 19.1763 2.47914 15.1691 4.8042 11.6941L5.28174 11.0066C7.73281 7.60378 11.032 4.87743 14.8608 3.09253L15.6343 2.7478C17.4529 1.97425 19.3506 1.42458 21.2876 1.09937L22.1206 0.973389ZM28.5601 3.03101C24.7189 2.50921 20.8138 2.96629 17.2124 4.3562L16.4966 4.64624C12.9369 6.1604 9.83711 8.55278 7.49365 11.5808L7.03564 12.1941C4.79454 15.3054 3.40485 18.9249 3.00439 22.7097L2.93701 23.4695C2.66917 27.275 3.41057 31.0818 5.07275 34.5183L5.41748 35.2C7.20222 38.5858 9.84306 41.4559 13.0786 43.5417L13.7329 43.949C17.2673 46.0613 21.3228 47.1775 25.4585 47.1794V47.1804L25.4595 47.1794L25.4604 47.1804V47.1794C27.4631 47.1846 29.4553 46.9196 31.3843 46.3914H31.396L31.4937 46.365C31.9332 46.2442 32.3311 45.9904 32.6226 45.6345L32.7407 45.4753C33.0334 45.0421 33.1516 44.5261 33.0923 44.0173H33.0933C33.091 43.9934 33.0898 43.969 33.0894 43.9451V43.9304L33.0884 43.9167L33.0698 43.7302C33.02 43.3616 32.8883 43.0131 32.689 42.7048L32.5835 42.5535C32.2937 42.1686 31.8986 41.8752 31.4497 41.7029L31.4517 41.7L31.4458 41.698H31.4468C29.6766 41.1267 28.1614 39.9906 27.1294 38.4802L26.9292 38.1736C25.9634 36.6151 25.5595 34.7905 25.7729 32.988L25.8237 32.6287C26.1198 30.8298 27.0192 29.1777 28.3774 27.9392L28.6548 27.698C30.0724 26.5166 31.852 25.8358 33.7075 25.7585L34.0796 25.7507H40.8892V25.7498C41.7558 25.7518 42.6134 25.5785 43.4067 25.2351L43.7437 25.0769C44.5169 24.6855 45.1984 24.1384 45.7427 23.4724L45.9673 23.1794C46.4719 22.4797 46.8207 21.6824 46.9917 20.8425L47.0542 20.4802C47.1843 19.556 47.0954 18.6175 46.7983 17.7322V17.7126L46.7534 17.5896C45.4566 13.995 43.2383 10.7974 40.3228 8.29663L39.73 7.8064C36.7222 5.39948 33.138 3.79768 29.3257 3.14819L28.5601 3.03101Z" stroke="black" stroke-width="1.5"/>
</g>
<defs>
<clipPath id="clip0_23_3318">
<rect width="50" height="50" fill="white"/>
</clipPath>
</defs>
</svg>
