<svg width="50" height="50" viewBox="0 0 50 50" fill="none" xmlns="http://www.w3.org/2000/svg">
<g clip-path="url(#clip0_23_3304)">
<path d="M18.895 0.978271C22.4653 0.344964 26.7005 0.337812 30.4976 0.966553V0.965576C33.8278 1.52948 35.9585 4.05608 35.9585 7.448V18.3455C35.9585 20.0549 35.4533 21.3094 34.5562 22.1414C33.6531 22.9788 32.279 23.4568 30.4077 23.4568H18.9878C17.1693 23.4568 15.1671 23.956 13.6089 25.1951C12.0329 26.4484 10.9585 28.4221 10.9585 31.2566V36.4587C10.9584 36.5663 10.9255 36.6703 10.8667 36.7585L10.7993 36.8416C10.6977 36.943 10.5601 36.9998 10.4165 36.9998H7.9165C6.25961 36.9998 4.86646 36.4589 3.76416 35.4363C2.72401 34.4713 1.91579 33.0519 1.41162 31.1873L1.31494 30.8083C0.289194 26.5266 0.225021 23.8443 1.12256 19.7712L1.31494 18.9373C1.76517 17.0583 2.70741 15.5809 4.00928 14.572C5.31192 13.5626 7.00405 12.9998 8.98779 12.9998H13.2769V11.9998C13.1333 11.9997 12.9956 11.943 12.894 11.8416L12.8267 11.7585C12.7679 11.6703 12.7349 11.5663 12.7349 11.4587V7.45679C12.7349 5.65218 13.0027 4.29801 13.8462 3.27319C14.6386 2.31047 16.0091 1.5547 18.4028 1.07104L18.895 0.978271ZM30.3159 2.03589C26.8691 1.46938 23.0584 1.43071 19.7378 1.93823L19.0806 2.04761C16.8758 2.43637 15.5086 2.99901 14.7222 3.92944C13.9281 4.86886 13.8188 6.0772 13.8188 7.45679V10.9167H24.7124C24.8202 10.9168 24.9248 10.9486 25.0132 11.0076L25.0952 11.075C25.1968 11.1765 25.2544 11.3151 25.2544 11.4587V13.5417C25.2544 13.6496 25.2217 13.7541 25.1626 13.8425L25.0952 13.9246C24.9937 14.0261 24.856 14.0837 24.7124 14.0837H8.98779C7.30772 14.0837 5.84197 14.5398 4.69482 15.4236C3.54687 16.308 2.75201 17.5936 2.36963 19.1912C1.84581 21.3674 1.57769 23.1116 1.57764 24.8689C1.57764 26.4066 1.78283 27.937 2.18506 29.7576L2.36963 30.5564C2.65113 31.7265 3.1423 33.0545 4.00928 34.0984C4.89112 35.1601 6.1555 35.9167 7.9165 35.9167H9.87451V31.2585C9.87451 28.1544 11.0248 25.9516 12.7104 24.5173C14.4083 23.0728 16.6899 22.3748 18.9878 22.3748H30.4077C31.8429 22.3748 32.9857 22.1058 33.7661 21.4119C34.5604 20.7055 34.8745 19.6556 34.8745 18.3484V7.448C34.8745 6.04221 34.4451 4.80216 33.645 3.85132C32.8949 2.95987 31.8412 2.34886 30.5747 2.08472L30.3179 2.03589H30.3159Z" stroke="black"/>
<path d="M39.5835 13H42.0835C43.7402 13.0001 45.1326 13.5419 46.2349 14.5645C47.2751 15.5295 48.0832 16.9486 48.5874 18.8135L48.6841 19.1924C49.7097 23.4738 49.7739 26.1557 48.8765 30.2285L48.6841 31.0625C48.2338 32.9416 47.2918 34.4188 45.9897 35.4277C44.6871 36.4372 42.9959 37 41.0122 37H26.3286V38H36.7231C36.8666 38.0001 37.0045 38.0568 37.106 38.1582C37.2075 38.2598 37.2642 38.3983 37.2642 38.542V42.5439C37.2641 44.3482 36.9971 45.7018 36.1538 46.7266C35.3614 47.6892 33.9906 48.445 31.5972 48.9287L31.105 49.0225H31.104C29.5333 49.3 27.8331 49.4571 26.0962 49.4922L25.3501 49.5H25.3491C23.3904 49.5036 21.4346 49.3466 19.5015 49.0312H19.5005C16.1714 48.4688 14.0415 45.9432 14.0415 42.5518V31.6543L14.0474 31.3389C14.1061 29.7896 14.6019 28.6383 15.4429 27.8584C16.3459 27.021 17.72 26.544 19.5913 26.5439H31.0122C32.8306 26.5439 34.832 26.0445 36.3901 24.8057C37.9662 23.5524 39.0414 21.5786 39.0415 18.7441V13.542C39.0415 13.4343 39.0735 13.3295 39.1323 13.2412L39.1997 13.1582C39.3013 13.0566 39.4398 13 39.5835 13ZM40.1245 18.7412C40.1245 21.8455 38.9752 24.0492 37.2896 25.4834C35.5917 26.928 33.3101 27.625 31.0122 27.625H19.5913C18.1564 27.625 17.0142 27.8942 16.2339 28.5879C15.4395 29.2943 15.1245 30.345 15.1245 31.6523V42.5498C15.1245 43.9554 15.5542 45.1957 16.354 46.1465C17.1042 47.0381 18.1586 47.65 19.4253 47.9141L19.6812 47.9619H19.6831C23.3597 48.5683 27.4492 48.5667 30.9165 47.9502L30.9175 47.9512C33.1228 47.5624 34.4912 46.9998 35.2778 46.0693C36.0719 45.13 36.1811 43.9215 36.1812 42.542V39.083H25.2876C25.1798 39.083 25.0752 39.0511 24.9868 38.9922L24.9048 38.9248C24.8033 38.8233 24.7457 38.6855 24.7456 38.542V36.458C24.7457 36.3505 24.7777 36.2464 24.8364 36.1582L24.9048 36.0752C25.0063 35.9738 25.1441 35.917 25.2876 35.917H41.0122C42.6923 35.917 44.158 35.4609 45.3052 34.5771C46.4532 33.6927 47.247 32.4062 47.6294 30.8086C48.1532 28.6322 48.4214 26.8882 48.4214 25.1309C48.4214 23.593 48.2163 22.063 47.814 20.2422L47.6294 19.4434L47.5142 18.998C47.2197 17.9457 46.7484 16.8148 45.9897 15.9014C45.108 14.8399 43.8441 14.0831 42.0835 14.083H40.1245V18.7412ZM19.7915 3.625C21.2335 3.625 22.4165 4.81305 22.4165 6.28125C22.4165 7.74356 21.2353 8.92676 19.7915 8.92676C18.3494 8.92676 17.1691 7.74619 17.1665 6.28613C17.1806 4.80782 18.3683 3.625 19.7915 3.625ZM18.2495 6.30176C18.2549 7.14069 18.9361 7.8457 19.7915 7.8457C20.5995 7.8457 21.2477 7.21854 21.3257 6.43945L21.3335 6.28125C21.3341 5.92324 21.212 5.57744 20.9907 5.2998L20.8892 5.18457C20.6037 4.8906 20.2148 4.72016 19.8052 4.70898L19.7944 4.70801H19.7827C19.6285 4.7107 19.4758 4.73685 19.3296 4.78418L19.186 4.83789C19.0448 4.8995 18.9142 4.98235 18.7974 5.08203L18.6851 5.1875C18.5783 5.29858 18.489 5.42469 18.4194 5.56152L18.356 5.70117C18.2814 5.89235 18.2452 6.09659 18.2495 6.30176Z" stroke="black"/>
<path d="M30.2085 41.0708C31.5616 41.0708 32.6846 42.1124 32.8198 43.4478L32.8335 43.7183C32.8171 45.1946 31.6303 46.3745 30.2085 46.3745C28.7665 46.3745 27.5835 45.1865 27.5835 43.7183C27.5837 42.2557 28.7653 41.0708 30.2085 41.0708ZM30.2085 42.1558C29.3471 42.1558 28.6665 42.8679 28.6665 43.7212C28.6667 44.5116 29.2708 45.2024 30.0503 45.2856L30.2085 45.2935H30.2173C30.3715 45.2908 30.5242 45.2656 30.6704 45.2183L30.814 45.1636C30.9551 45.102 31.0859 45.02 31.2026 44.9204L31.3149 44.8149C31.4217 44.7039 31.511 44.5777 31.5806 44.4409L31.644 44.3003C31.7186 44.1091 31.7549 43.9049 31.7505 43.6997H31.7495C31.7473 43.2945 31.5872 42.9062 31.3022 42.6177C31.0503 42.3627 30.719 42.2039 30.3657 42.1655L30.2134 42.1558H30.2085Z" stroke="black"/>
</g>
<defs>
<clipPath id="clip0_23_3304">
<rect width="50" height="50" fill="white"/>
</clipPath>
</defs>
</svg>
