<svg width="42" height="42" viewBox="0 0 42 42" fill="none" xmlns="http://www.w3.org/2000/svg">
<path d="M21 0.6875H20.9512C9.75 0.716797 0.6875 9.79883 0.6875 21C0.6875 32.2012 9.75 41.2832 20.9512 41.3125H21C32.2207 41.3125 41.3125 32.2207 41.3125 21C41.3125 9.7793 32.2207 0.6875 21 0.6875ZM21.8105 12.8457C23.9687 12.7871 26.0586 12.5039 28.0801 12.0156C28.6855 14.4082 29.0664 17.1719 29.125 20.1992H21.8105V12.8457ZM21.8105 11.2148V2.44531C23.998 3.05078 26.2246 5.9707 27.6309 10.4531C25.7559 10.9023 23.8125 11.1562 21.8105 11.2148ZM20.1895 2.42578V11.2246C18.168 11.166 16.2051 10.9023 14.3203 10.4434C15.7461 5.93164 17.9824 2.99219 20.1895 2.42578ZM20.1895 12.8457V20.1895H12.8262C12.8848 17.1621 13.2656 14.3984 13.8711 12.0059C15.9023 12.4941 18.0215 12.7871 20.1895 12.8457ZM11.1855 20.1895H2.33789C2.51367 16.0098 4.07617 12.1816 6.56641 9.1543C8.37305 10.1504 10.2969 10.9707 12.3086 11.5762C11.6445 14.1641 11.2539 17.084 11.1855 20.1895ZM11.1855 21.8105C11.2441 24.9062 11.6348 27.8359 12.2988 30.4238C10.2871 31.0391 8.37305 31.8496 6.55664 32.8457C4.06641 29.8184 2.51367 25.9902 2.32813 21.8105H11.1855ZM12.8262 21.8105H20.1895V29.1445C18.0215 29.2031 15.9023 29.4961 13.8711 29.9941C13.2656 27.6016 12.8848 24.8379 12.8262 21.8105ZM20.1895 30.7754V39.584C17.9824 39.0078 15.7461 36.0781 14.3203 31.5664C16.2051 31.0977 18.168 30.834 20.1895 30.7754ZM21.8105 39.5547V30.7656C23.8125 30.8242 25.7559 31.0879 27.6406 31.5371C26.2246 36.0293 24.0078 38.9492 21.8105 39.5547ZM21.8105 29.1445V21.8105H29.125C29.0664 24.8281 28.6855 27.5918 28.0801 29.9844C26.0586 29.4961 23.9687 29.2031 21.8105 29.1445ZM30.7559 21.8105H39.6621C39.4863 25.9902 37.9238 29.8086 35.4336 32.8457C33.6074 31.8398 31.6738 31.0195 29.6426 30.4043C30.3066 27.8164 30.6973 24.9062 30.7559 21.8105ZM30.7559 20.1895C30.6973 17.0938 30.3066 14.1738 29.6523 11.5859C31.6836 10.9707 33.6172 10.1504 35.4336 9.1543C37.9238 12.1816 39.4863 16.0098 39.6621 20.1992H30.7559V20.1895ZM34.3203 7.9043C32.6992 8.76367 31 9.47656 29.2129 10.0137C28.2656 6.95703 26.9277 4.4668 25.3555 2.82617C28.8125 3.65625 31.8984 5.45312 34.3203 7.9043ZM16.5859 2.8457C15.0137 4.47656 13.6855 6.9668 12.748 10.0039C10.9805 9.4668 9.29102 8.76367 7.68945 7.9043C10.082 5.46289 13.1484 3.67578 16.5859 2.8457ZM7.67969 34.0859C9.28125 33.2266 10.9805 32.5234 12.7383 31.9863C13.6855 35.0332 15.0137 37.5137 16.5859 39.1543C13.1484 38.3242 10.082 36.5371 7.67969 34.0859ZM25.3555 39.1738C26.9375 37.5332 28.2656 35.043 29.2227 31.9766C31.0098 32.5137 32.709 33.2266 34.3301 34.0859C31.9082 36.5469 28.8125 38.3438 25.3555 39.1738Z" fill="black"/>
</svg>
