<svg width="71" height="70" viewBox="0 0 71 70" fill="none" xmlns="http://www.w3.org/2000/svg">
<g clip-path="url(#clip0_11_200)">
<path d="M50.8889 69.136H20.1108C20.0394 69.136 19.9688 69.1218 19.9031 69.0942C19.8374 69.0666 19.7778 69.0261 19.7279 68.9752C19.678 68.9243 19.6387 68.8639 19.6124 68.7976C19.5862 68.7313 19.5734 68.6604 19.5748 68.5892V61.2501C19.6122 60.4869 19.8063 59.7396 20.145 59.0546C20.4837 58.3697 20.9598 57.7618 21.5436 57.2688C23.0459 56.0573 24.8421 55.2648 26.7498 54.972C28.9373 54.5454 30.4139 53.8782 30.7967 52.9923C31.0565 52.2596 31.1243 51.4726 30.9936 50.7063H32.0764C32.2175 51.6496 32.1159 52.6133 31.7811 53.5063C31.2233 54.7095 29.5936 55.5845 26.9467 56.0876C25.2405 56.3238 23.6283 57.011 22.2764 58.0782C21.8047 58.4695 21.4171 58.9523 21.137 59.4974C20.8569 60.0425 20.6901 60.6388 20.6467 61.2501V68.0751H50.3529V61.2501C50.1123 57.9688 46.8092 56.6017 44.0748 56.0876C41.3404 55.5735 39.7873 54.6876 39.2295 53.4407C38.8965 52.528 38.8024 51.5453 38.9561 50.586C38.9629 50.5155 38.9836 50.447 39.0171 50.3846C39.0505 50.3221 39.0961 50.2669 39.151 50.2222C39.2059 50.1774 39.2692 50.144 39.3371 50.1239C39.405 50.1037 39.4762 50.0972 39.5467 50.1048C39.688 50.1213 39.8172 50.1922 39.9071 50.3025C39.9969 50.4128 40.0403 50.5537 40.0279 50.6954C39.9083 51.4643 39.9682 52.2504 40.2029 52.9923C40.5967 53.8454 42.0404 54.5454 44.2717 54.972C48.7233 55.8251 51.1951 57.9579 51.4248 61.1626V68.5892C51.4263 68.6604 51.4135 68.7313 51.3872 68.7976C51.3609 68.8639 51.3217 68.9243 51.2718 68.9752C51.2219 69.0261 51.1623 69.0666 51.0965 69.0942C51.0308 69.1218 50.9602 69.136 50.8889 69.136ZM28.4342 41.836C28.3622 41.8521 28.2875 41.8521 28.2154 41.836C28.1384 41.803 28.0704 41.752 28.0171 41.6873C27.9639 41.6226 27.9269 41.5461 27.9092 41.4642C27.7998 40.972 26.9139 36.5751 28.6639 34.7595C28.9466 34.4755 29.2912 34.2606 29.6706 34.1316C30.05 34.0026 30.4541 33.9629 30.8514 34.0157C31.3764 33.261 33.0389 31.8282 37.9826 32.6704C38.8178 32.7687 39.6225 33.044 40.3429 33.4777C41.0634 33.9115 41.6831 34.4939 42.1608 35.186C43.8889 37.7892 43.0795 41.322 43.0358 41.4751C43.0107 41.5928 42.9459 41.6983 42.8524 41.774C42.7588 41.8496 42.642 41.8908 42.5217 41.8907C42.401 41.8939 42.2829 41.8554 42.1873 41.7817C42.0916 41.708 42.0243 41.6036 41.9967 41.486C41.9967 41.3767 41.1983 38.7188 36.4295 39.1673C34.0233 39.397 32.7326 38.8938 32.0545 38.3907C31.3196 39.8568 30.1458 41.0573 28.6967 41.8251C28.6112 41.8488 28.5214 41.8525 28.4342 41.836ZM30.5451 35.0001C30.3434 34.9933 30.1424 35.0276 29.9544 35.1009C29.7664 35.1742 29.5952 35.2851 29.4514 35.4267C28.4998 36.411 28.6201 38.9048 28.8389 40.3923C30.0202 39.6495 30.9029 38.5152 31.3326 37.1876C31.3629 37.0796 31.4249 36.9832 31.5108 36.911C31.5967 36.8388 31.7023 36.7942 31.8139 36.7829C31.9267 36.7725 32.0398 36.7988 32.1364 36.8579C32.233 36.9171 32.3078 37.0058 32.3498 37.111C32.3498 37.111 33.017 38.336 36.3311 38.0188C39.6451 37.7017 41.2967 38.7188 42.1717 39.6704C42.2852 38.2851 41.9682 36.8985 41.2639 35.7001C40.8639 35.1354 40.3494 34.6613 39.7539 34.3089C39.1583 33.9564 38.4951 33.7336 37.8076 33.6548C32.5029 32.7688 31.6498 34.6938 31.6498 34.7485C31.6006 34.8632 31.5151 34.9585 31.4064 35.0198C31.2977 35.0811 31.1718 35.1049 31.0483 35.0876C30.8836 35.043 30.7152 35.0137 30.5451 35.0001Z" fill="black"/>
<path d="M35.5001 53.0468C34.5839 53.031 33.6844 52.7987 32.8751 52.3687C30.8363 51.1118 29.3596 49.1182 28.7517 46.8015L28.5767 46.714C27.8534 46.0838 27.4026 45.1978 27.3189 44.2421C27.0564 42.9734 27.1657 42.1203 27.636 41.65C27.7141 41.5678 27.8069 41.5011 27.9095 41.4531C27.8762 41.3139 27.8988 41.1673 27.9724 41.0446C28.0461 40.9219 28.1648 40.833 28.3032 40.7968C28.3715 40.7787 28.4426 40.7742 28.5126 40.7837C28.5825 40.7931 28.6499 40.8163 28.7109 40.8519C28.7719 40.8874 28.8252 40.9347 28.8679 40.9909C28.9106 41.0472 28.9417 41.1113 28.9595 41.1796L29.1017 41.7375C29.1254 41.8255 29.1257 41.9182 29.1027 42.0064C29.0797 42.0946 29.0341 42.1753 28.9704 42.2406C28.9073 42.3083 28.828 42.3588 28.74 42.3875C28.652 42.4162 28.5582 42.4221 28.4673 42.4046C28.3579 42.4921 28.1392 42.8203 28.3907 44.0343C28.697 45.489 29.0798 45.7734 29.1564 45.8171C29.2674 45.8098 29.3781 45.8365 29.4736 45.8937C29.5367 45.9297 29.5916 45.9785 29.6349 46.0368C29.6782 46.0952 29.7089 46.1619 29.7251 46.2328C29.7251 46.2328 30.5673 49.9296 33.3892 51.439C34.0422 51.7894 34.7701 51.977 35.511 51.9859C36.2413 51.9743 36.9579 51.7867 37.6001 51.439C40.4329 49.9296 41.2642 46.2765 41.2751 46.2437C41.2899 46.1709 41.32 46.102 41.3633 46.0417C41.4067 45.9814 41.4624 45.9309 41.5267 45.8937C41.6216 45.8351 41.7327 45.8083 41.8439 45.8171C41.9204 45.8171 42.3032 45.489 42.6095 44.0343C42.872 42.7656 42.6095 42.4593 42.6095 42.4375C42.5169 42.4529 42.422 42.4461 42.3326 42.4176C42.2432 42.389 42.1619 42.3396 42.0954 42.2734C42.0271 42.2124 41.9745 42.1358 41.9421 42.0501C41.9097 41.9644 41.8986 41.8722 41.9095 41.7812L42.0079 41.2234C42.0326 41.0784 42.1138 40.949 42.2338 40.8639C42.3538 40.7788 42.5027 40.7448 42.6478 40.7695C42.7928 40.7941 42.9221 40.8754 43.0072 40.9954C43.0924 41.1154 43.1263 41.2643 43.1017 41.4093C43.2169 41.4619 43.3209 41.5361 43.4079 41.6281C43.8892 42.0984 43.9876 42.9515 43.7251 44.2203C43.6442 45.1743 43.1974 46.0601 42.4782 46.6921L42.3032 46.7796C41.6953 49.0963 40.2187 51.09 38.1798 52.3468C37.3558 52.792 36.4366 53.0321 35.5001 53.0468ZM35.5001 56.9953C34.4758 56.9754 33.4655 56.7535 32.5271 56.3425C31.5886 55.9315 30.7405 55.3393 30.0314 54.6C29.979 54.5509 29.9374 54.4916 29.9088 54.4257C29.8803 54.3599 29.8656 54.2889 29.8656 54.2171C29.8656 54.1454 29.8803 54.0744 29.9088 54.0086C29.9374 53.9427 29.979 53.8834 30.0314 53.8343C30.1317 53.7348 30.2674 53.679 30.4087 53.679C30.5501 53.679 30.6857 53.7348 30.7861 53.8343C31.391 54.4808 32.1205 54.9982 32.9306 55.3553C33.7408 55.7125 34.6148 55.902 35.5001 55.9125C36.3895 55.8977 37.2672 55.7064 38.0821 55.3497C38.8969 54.9929 39.6328 54.4778 40.247 53.8343C40.3474 53.7348 40.483 53.679 40.6243 53.679C40.7657 53.679 40.9013 53.7348 41.0017 53.8343C41.054 53.8834 41.0957 53.9427 41.1242 54.0086C41.1527 54.0744 41.1674 54.1454 41.1674 54.2171C41.1674 54.2889 41.1527 54.3599 41.1242 54.4257C41.0957 54.4916 41.054 54.5509 41.0017 54.6C40.2886 55.3432 39.4352 55.9376 38.4909 56.3488C37.5465 56.7599 36.53 56.9797 35.5001 56.9953ZM31.8579 37.8765C31.7386 37.8792 31.622 37.8403 31.5282 37.7665C31.4344 37.6927 31.3692 37.5885 31.3439 37.4718L30.622 34.6828C30.604 34.6138 30.6 34.542 30.6101 34.4714C30.6203 34.4009 30.6444 34.3331 30.6811 34.272C30.7177 34.2109 30.7662 34.1577 30.8237 34.1155C30.8811 34.0734 30.9464 34.0431 31.0157 34.0265C31.0833 34.0085 31.1537 34.0042 31.2229 34.0137C31.2922 34.0233 31.3588 34.0466 31.4189 34.0823C31.479 34.1179 31.5314 34.1652 31.5729 34.2214C31.6145 34.2775 31.6445 34.3414 31.6611 34.4093L32.3829 37.1875C32.4009 37.2564 32.4049 37.3283 32.3948 37.3988C32.3846 37.4693 32.3605 37.5371 32.3238 37.5983C32.2872 37.6594 32.2387 37.7125 32.1812 37.7547C32.1238 37.7968 32.0585 37.8271 31.9892 37.8437L31.8579 37.8765ZM20.111 69.1359H1.03605C0.964739 69.1359 0.894143 69.1217 0.828397 69.0941C0.76265 69.0665 0.703076 69.026 0.653164 68.9751C0.603252 68.9241 0.564006 68.8638 0.537725 68.7975C0.511444 68.7312 0.498656 68.6603 0.500112 68.589V62.3437C0.696987 59.5546 2.80792 57.7171 6.62511 56.9953C8.45167 56.6562 9.67667 56.0656 9.99386 55.3656C10.2021 54.7577 10.2585 54.1081 10.1579 53.4734H11.2298C11.3392 54.2516 11.2527 55.0448 10.9782 55.7812C10.3657 57.1046 8.37511 57.7281 6.82199 57.9687C4.53605 58.4062 1.76886 59.5218 1.57199 62.3437V68.0203H20.1657C20.3108 68.0203 20.4499 68.0779 20.5524 68.1804C20.655 68.283 20.7126 68.4221 20.7126 68.5671C20.7126 68.7122 20.655 68.8513 20.5524 68.9538C20.4499 69.0564 20.3108 69.114 20.1657 69.114L20.111 69.1359ZM21.9048 58.1546H21.7954L21.2814 58.0453C19.7282 57.7609 17.7376 57.1375 17.1251 55.8578C16.8356 55.0561 16.7602 54.1928 16.9064 53.3531C16.9209 53.208 16.9924 53.0747 17.1052 52.9824C17.218 52.8901 17.3629 52.8464 17.5079 52.8609C17.653 52.8754 17.7863 52.9469 17.8786 53.0597C17.9709 53.1726 18.0146 53.3174 18.0001 53.4625C17.8929 54.0997 17.9455 54.7536 18.1532 55.3656C18.4704 56.0656 19.7064 56.6562 21.522 56.9953L22.0361 57.0937C22.106 57.1068 22.1726 57.1337 22.2321 57.1728C22.2915 57.2119 22.3426 57.2624 22.3823 57.3215C22.422 57.3805 22.4496 57.4469 22.4634 57.5167C22.4771 57.5865 22.4769 57.6584 22.4626 57.7281C22.4345 57.8533 22.3632 57.9647 22.2612 58.0427C22.1592 58.1207 22.0331 58.1603 21.9048 58.1546ZM19.9907 46.0468C19.8719 46.0475 19.7563 46.0079 19.663 45.9344C19.5696 45.8608 19.5039 45.7578 19.4767 45.6421C19.4767 45.5546 18.8204 43.3781 14.8501 43.75C13.5899 43.9789 12.2893 43.7583 11.1751 43.1265C10.5386 44.3297 9.55041 45.3103 8.3423 45.9375C8.26764 45.975 8.18523 45.9945 8.10167 45.9945C8.01811 45.9945 7.93571 45.975 7.86105 45.9375C7.78546 45.9023 7.71871 45.8506 7.66571 45.7863C7.61271 45.7219 7.57481 45.6465 7.5548 45.5656C7.4673 45.139 6.71261 41.3875 8.22199 39.8234C8.46006 39.5745 8.75354 39.3853 9.07855 39.2713C9.40356 39.1572 9.7509 39.1216 10.0923 39.1671C10.5845 38.5 12.061 37.3406 16.1735 38.0734C16.8925 38.1628 17.5841 38.404 18.2027 38.7812C18.8212 39.1583 19.3524 39.6627 19.7611 40.2609C20.6648 41.9051 20.9334 43.8239 20.5157 45.6531C20.4888 45.7699 20.4236 45.8743 20.3304 45.9496C20.2372 46.0249 20.1215 46.0669 20.0017 46.0687L19.9907 46.0468ZM9.87355 40.2937C9.71298 40.2854 9.55242 40.3102 9.40188 40.3666C9.25133 40.4231 9.11403 40.51 8.99855 40.6218C8.24386 41.4093 8.32042 43.3781 8.48449 44.625C9.411 44.0041 10.1038 43.0919 10.4532 42.0328C10.4821 41.924 10.5438 41.8268 10.6299 41.7543C10.716 41.6819 10.8224 41.6378 10.9345 41.6281C11.0477 41.6144 11.1623 41.6379 11.261 41.6951C11.3597 41.7524 11.437 41.8402 11.4814 41.9453C11.4814 41.9453 12.0392 42.9296 14.7626 42.6781C17.486 42.4265 18.8423 43.1812 19.6407 43.9468C19.6939 42.8554 19.4278 41.7722 18.8751 40.8296C18.5424 40.3635 18.1153 39.9726 17.6216 39.6824C17.1279 39.3922 16.5786 39.2092 16.0095 39.1453C11.6345 38.4125 10.8907 39.9765 10.8907 39.9875C10.8415 40.1021 10.756 40.1975 10.6473 40.2587C10.5386 40.32 10.4128 40.3438 10.2892 40.3265L9.87355 40.2937Z" fill="black"/>
<path d="M14.0734 55.5298C13.2841 55.5141 12.5091 55.3157 11.8093 54.9501C10.0796 53.8777 8.821 52.1891 8.28747 50.2251L8.15622 50.1595C7.51679 49.6036 7.12354 48.8171 7.06247 47.972C6.83278 46.8782 6.93122 46.1235 7.34684 45.7079C7.40404 45.6469 7.47047 45.5952 7.54372 45.5548C7.51326 45.4098 7.54166 45.2586 7.62268 45.1345C7.70371 45.0104 7.83071 44.9235 7.97575 44.8931C8.12079 44.8626 8.27199 44.891 8.39608 44.972C8.52018 45.0531 8.60701 45.1801 8.63747 45.3251L8.75778 45.7954C8.78352 45.885 8.78494 45.9799 8.76187 46.0702C8.7388 46.1606 8.69209 46.2432 8.62653 46.3095C8.5634 46.3735 8.48546 46.421 8.39961 46.4477C8.31376 46.4744 8.22265 46.4795 8.13434 46.4626C8.00246 46.8988 8.01011 47.3653 8.15622 47.797C8.39684 48.8907 8.68122 49.1751 8.74684 49.2298C8.85048 49.2274 8.95274 49.2539 9.04215 49.3064C9.10366 49.343 9.15684 49.3921 9.19827 49.4505C9.23971 49.5089 9.26849 49.5753 9.28278 49.6454C9.70785 51.4412 10.8035 53.0064 12.3453 54.0204C12.8891 54.3055 13.4922 54.4591 14.1062 54.4689C14.7036 54.4459 15.2877 54.2849 15.8125 53.9985C17.3542 52.9845 18.4499 51.4193 18.875 49.6235C18.8911 49.5527 18.9219 49.486 18.9652 49.4276C19.0085 49.3692 19.0634 49.3205 19.1265 49.2845C19.2125 49.2334 19.3109 49.207 19.4109 49.2079C19.4875 49.2079 19.7718 48.8689 20.0015 47.7642C20.1875 46.8454 20.0562 46.5173 20.0015 46.4845C19.9176 46.5041 19.8299 46.5012 19.7474 46.4763C19.6648 46.4513 19.5903 46.4051 19.5312 46.3423C19.4684 46.2809 19.4223 46.2044 19.3974 46.1202C19.3725 46.0359 19.3696 45.9467 19.389 45.861L19.4765 45.3907C19.4983 45.2457 19.5768 45.1152 19.6947 45.0281C19.8127 44.9409 19.9604 44.9041 20.1054 44.9259C20.2505 44.9476 20.3809 45.0261 20.4681 45.1441C20.5553 45.262 20.592 45.4098 20.5703 45.5548C20.6542 45.6027 20.7315 45.6616 20.8 45.7298C21.2265 46.1454 21.314 46.8892 21.0843 47.9939C21.0565 48.4129 20.9454 48.8221 20.7576 49.1977C20.5698 49.5733 20.3091 49.9077 19.9906 50.1814L19.8703 50.247C19.3408 52.213 18.0812 53.9029 16.3484 54.972C15.6438 55.3324 14.8648 55.5234 14.0734 55.5298ZM14.0515 58.8657C13.1753 58.859 12.3089 58.6798 11.502 58.3382C10.695 57.9967 9.96321 57.4995 9.3484 56.8751C9.29609 56.826 9.25439 56.7667 9.22589 56.7009C9.19739 56.635 9.18268 56.564 9.18268 56.4923C9.18268 56.4206 9.19739 56.3496 9.22589 56.2837C9.25439 56.2179 9.29609 56.1586 9.3484 56.1095C9.44878 56.01 9.5844 55.9541 9.72575 55.9541C9.86709 55.9541 10.0027 56.01 10.1031 56.1095C10.6122 56.647 11.224 57.0769 11.9022 57.3737C12.5804 57.6705 13.3113 57.8283 14.0515 57.8376C14.7951 57.8176 15.5272 57.6496 16.2051 57.3435C16.8831 57.0374 17.4932 56.5993 18 56.0548C18.1015 55.9533 18.2392 55.8962 18.3828 55.8962C18.5264 55.8962 18.6641 55.9533 18.7656 56.0548C18.8671 56.1563 18.9242 56.294 18.9242 56.4376C18.9242 56.5812 18.8671 56.7189 18.7656 56.8204C17.5268 58.0992 15.8316 58.8347 14.0515 58.8657ZM10.9781 42.6564C10.8593 42.657 10.7437 42.6174 10.6503 42.5439C10.5569 42.4704 10.4913 42.3674 10.464 42.2517L9.85153 39.8892C9.81527 39.7441 9.83811 39.5906 9.91503 39.4624C9.99195 39.3342 10.1166 39.2418 10.2617 39.2056C10.4067 39.1693 10.5602 39.1922 10.6884 39.2691C10.8166 39.346 10.909 39.4707 10.9453 39.6157L11.5468 41.9892C11.565 42.0574 11.5694 42.1285 11.56 42.1985C11.5506 42.2685 11.5274 42.3359 11.4918 42.3968C11.4562 42.4578 11.409 42.5112 11.3527 42.5538C11.2965 42.5965 11.2323 42.6276 11.164 42.6454L10.9781 42.6564ZM69.964 69.136H50.889C50.744 69.136 50.6049 69.0784 50.5023 68.9759C50.3998 68.8733 50.3422 68.7342 50.3422 68.5892C50.3422 68.4441 50.3998 68.305 50.5023 68.2025C50.6049 68.0999 50.744 68.0423 50.889 68.0423H69.4062V62.3439C69.1984 59.5876 66.4312 58.4829 64.1562 58.0454C62.6031 57.761 60.6125 57.1376 60 55.8579C59.706 55.0767 59.6193 54.2326 59.7484 53.4079C59.76 53.2629 59.8288 53.1284 59.9395 53.034C60.0503 52.9397 60.194 52.8932 60.339 52.9048C60.4841 52.9164 60.6186 52.9851 60.7129 53.0959C60.8073 53.2067 60.8538 53.3504 60.8422 53.4954C60.7415 54.133 60.794 54.7853 60.9953 55.3985C61.3234 56.1095 62.5484 56.7001 64.375 57.0392C68.1812 57.761 70.2922 59.5985 70.5 62.3439V68.6329C70.4916 68.7693 70.4315 68.8973 70.3319 68.9909C70.2322 69.0844 70.1007 69.1363 69.964 69.136ZM49.0953 58.1548C48.9726 58.1529 48.8541 58.1098 48.7589 58.0324C48.6637 57.9551 48.5973 57.8479 48.5703 57.7282C48.556 57.6585 48.5557 57.5867 48.5695 57.5168C48.5833 57.447 48.6109 57.3807 48.6506 57.3216C48.6903 57.2626 48.7413 57.212 48.8008 57.1729C48.8603 57.1338 48.9269 57.1069 48.9968 57.0939L49.5109 56.9954C51.3265 56.6564 52.5515 56.0657 52.8687 55.3657C53.0691 54.7557 53.1142 54.1054 53 53.4735H54.0937C54.2108 54.2516 54.1242 55.0468 53.8422 55.7814C53.2406 57.1048 51.2609 57.7173 49.7078 57.9689L49.2047 58.0673L49.0953 58.1548ZM62.8437 46.047C62.7235 46.0482 62.6064 46.0089 62.5112 45.9355C62.4159 45.8621 62.3482 45.7589 62.3187 45.6423C62.3187 45.5548 61.6625 43.3673 57.7031 43.7501C56.4641 43.9589 55.1909 43.739 54.0937 43.1267C53.4474 44.3339 52.4475 45.3147 51.2281 45.9376C51.1534 45.9751 51.071 45.9947 50.9875 45.9947C50.9039 45.9947 50.8215 45.9751 50.7468 45.9376C50.6688 45.9062 50.5998 45.8557 50.5463 45.7907C50.4928 45.7257 50.4565 45.6484 50.4406 45.5657C50.3422 45.1392 49.5875 41.3876 51.0968 39.8235C51.3349 39.5746 51.6284 39.3855 51.9534 39.2714C52.2784 39.1574 52.6258 39.1217 52.9672 39.1673C53.4593 38.5001 54.9359 37.3407 59.0593 38.0735C59.7779 38.1643 60.469 38.4061 61.0873 38.7831C61.7057 39.1602 62.2372 39.6638 62.6468 40.261C63.5438 41.9075 63.812 43.8238 63.4015 45.6532C63.3725 45.7709 63.3051 45.8756 63.2101 45.9508C63.1151 46.026 62.9977 46.0675 62.8765 46.0689L62.8437 46.047ZM52.7156 40.2939C52.5552 40.2868 52.395 40.3122 52.2446 40.3686C52.0942 40.425 51.9568 40.5112 51.8406 40.622C51.0859 41.4095 51.1625 43.3673 51.3265 44.6251C52.2583 44.0073 52.9555 43.0944 53.3062 42.0329C53.3336 41.9234 53.3948 41.8253 53.4813 41.7526C53.5677 41.6799 53.6749 41.6364 53.7875 41.6282C53.8994 41.6133 54.0132 41.6364 54.1104 41.6939C54.2076 41.7515 54.2827 41.8401 54.3234 41.9454C54.3234 41.9454 54.8812 42.9298 57.6047 42.6782C60.3281 42.4267 61.6843 43.1814 62.4718 43.947C62.5342 42.8547 62.2675 41.7689 61.7062 40.8298C61.3757 40.3639 60.9506 39.9731 60.4587 39.6828C59.9668 39.3926 59.4191 39.2095 58.8515 39.1454C54.4765 38.4126 53.7328 39.9767 53.7218 39.9876C53.6747 40.1014 53.5911 40.1964 53.4843 40.2577C53.3774 40.3191 53.2533 40.3433 53.1312 40.3267L52.7156 40.2939Z" fill="black"/>
<path d="M56.9483 55.5296C56.1592 55.5124 55.3846 55.3141 54.6843 54.95C52.9534 53.8813 51.6971 52.1906 51.1733 50.2249L51.0421 50.1593C50.4027 49.6034 50.0094 48.8169 49.9483 47.9718C49.7186 46.8781 49.8171 46.1234 50.2436 45.7078C50.2947 45.6447 50.3579 45.5926 50.4296 45.5546C50.4091 45.4205 50.4391 45.2836 50.5139 45.1704C50.5887 45.0572 50.7029 44.9758 50.8343 44.9421C50.9025 44.924 50.9736 44.9195 51.0436 44.929C51.1136 44.9384 51.181 44.9616 51.242 44.9972C51.3029 45.0327 51.3563 45.08 51.3989 45.1363C51.4416 45.1925 51.4727 45.2566 51.4905 45.3249L51.6108 45.7953C51.6315 45.8852 51.6303 45.9788 51.6075 46.0682C51.5846 46.1576 51.5408 46.2403 51.4796 46.3093C51.4137 46.3727 51.3338 46.4196 51.2464 46.4462C51.1589 46.4728 51.0665 46.4784 50.9765 46.4624C50.9765 46.4624 50.8124 46.8234 50.9765 47.7531C51.1405 48.6828 51.4905 49.1312 51.5671 49.1859C51.6671 49.1849 51.7655 49.2114 51.8515 49.2625C51.9146 49.2985 51.9695 49.3472 52.0128 49.4056C52.0561 49.4639 52.0868 49.5307 52.103 49.6015C52.5229 51.3996 53.6198 52.9666 55.1655 53.9765C55.7055 54.2615 56.305 54.4151 56.9155 54.4249C57.5189 54.4138 58.111 54.2601 58.6436 53.9765C60.191 52.9682 61.2884 51.4005 61.7061 49.6015C61.7223 49.5307 61.753 49.4639 61.7963 49.4056C61.8396 49.3472 61.8946 49.2985 61.9577 49.2625C62.0453 49.2154 62.1427 49.1891 62.2421 49.1859C62.3186 49.1859 62.603 48.8468 62.8327 47.7421C63.0296 46.8234 62.8327 46.4953 62.8327 46.4624C62.7471 46.4829 62.6575 46.4806 62.5731 46.4556C62.4886 46.4307 62.4122 46.384 62.3515 46.3203C62.293 46.2562 62.2506 46.1791 62.2278 46.0955C62.2049 46.0118 62.2024 45.9239 62.2202 45.839L62.2968 45.3687C62.3234 45.2268 62.405 45.1012 62.5238 45.0192C62.6427 44.9373 62.7891 44.9056 62.9311 44.9312C63.0653 44.9601 63.1841 45.0374 63.2648 45.1484C63.3455 45.2594 63.3825 45.3962 63.3686 45.5328C63.4512 45.5779 63.5252 45.6372 63.5874 45.7078C64.014 46.1234 64.1124 46.8671 63.8827 47.9718C63.8216 48.8169 63.4284 49.6034 62.789 50.1593L62.6577 50.2249C62.1339 52.1906 60.8777 53.8813 59.1468 54.95C58.4665 55.3052 57.7153 55.5033 56.9483 55.5296ZM56.9374 58.8656C55.1649 58.8502 53.4704 58.1346 52.2233 56.875C52.1731 56.8247 52.1332 56.765 52.106 56.6993C52.0788 56.6336 52.0648 56.5632 52.0648 56.4921C52.0648 56.421 52.0788 56.3506 52.106 56.285C52.1332 56.2193 52.1731 56.1596 52.2233 56.1093C52.2736 56.0591 52.3333 56.0192 52.399 55.992C52.4647 55.9648 52.5351 55.9508 52.6061 55.9508C52.6772 55.9508 52.7476 55.9648 52.8133 55.992C52.879 56.0192 52.9387 56.0591 52.989 56.1093C53.4957 56.6498 54.107 57.0817 54.7858 57.3788C55.4645 57.6758 56.1965 57.8319 56.9374 57.8375C57.6787 57.8247 58.4102 57.6655 59.0897 57.3689C59.7692 57.0723 60.3834 56.6442 60.8968 56.1093C60.9971 56.0098 61.1328 55.954 61.2741 55.954C61.4155 55.954 61.5511 56.0098 61.6515 56.1093C61.7038 56.1584 61.7455 56.2177 61.774 56.2836C61.8025 56.3494 61.8172 56.4204 61.8172 56.4921C61.8172 56.5639 61.8025 56.6349 61.774 56.7007C61.7455 56.7666 61.7038 56.8259 61.6515 56.875C60.4051 58.1356 58.7101 58.8513 56.9374 58.8656ZM53.864 42.6562C53.7442 42.6555 53.628 42.6156 53.5332 42.5425C53.4383 42.4694 53.3701 42.3671 53.339 42.2515L52.7374 39.889C52.7011 39.744 52.724 39.5905 52.8009 39.4623C52.8778 39.3341 53.0025 39.2417 53.1476 39.2054C53.2926 39.1692 53.4461 39.192 53.5743 39.2689C53.7025 39.3458 53.7949 39.4705 53.8311 39.6156L54.4327 41.989C54.4508 42.0572 54.4553 42.1284 54.4459 42.1983C54.4364 42.2683 54.4132 42.3357 54.3777 42.3967C54.3421 42.4577 54.2948 42.511 54.2386 42.5537C54.1823 42.5963 54.1182 42.6275 54.0499 42.6453L53.864 42.6562ZM9.08584 37.8765C8.97213 37.8757 8.8615 37.8394 8.76937 37.7727C8.67723 37.7061 8.60816 37.6124 8.57178 37.5046L6.70146 31.6312C5.66038 30.9373 4.80044 30.0043 4.19347 28.9102C3.5865 27.8162 3.25011 26.5927 3.2124 25.3421C3.2124 20.6718 7.9374 16.8656 13.7452 16.8656C19.553 16.8656 24.278 20.6718 24.278 25.3421C24.278 30.0125 19.553 33.8187 13.7452 33.8187C12.7621 33.8154 11.7826 33.7017 10.8249 33.4796L9.5999 37.4937C9.56851 37.6053 9.50106 37.7034 9.40807 37.7727C9.31507 37.8419 9.20177 37.8784 9.08584 37.8765ZM13.7452 17.9484C8.53896 17.9484 4.29521 21.2296 4.29521 25.3421C4.34459 26.4417 4.65874 27.5131 5.21097 28.4652C5.7632 29.4173 6.53717 30.222 7.46709 30.8109C7.56836 30.8775 7.64216 30.9785 7.6749 31.0953L9.0749 35.4703L9.93896 32.6156C9.97956 32.4816 10.0709 32.3689 10.1936 32.3014C10.3162 32.234 10.4604 32.2172 10.5952 32.2546C11.6214 32.5373 12.6808 32.6808 13.7452 32.6812C18.9624 32.6812 23.2062 29.4 23.2062 25.2875C23.2062 21.175 18.9624 17.9484 13.7452 17.9484ZM61.914 37.8765C61.798 37.8784 61.6847 37.8419 61.5917 37.7727C61.4987 37.7034 61.4313 37.6053 61.3999 37.4937L60.1749 33.4796C59.2172 33.7017 58.2376 33.8154 57.2546 33.8187C51.4468 33.8187 46.7218 30.0125 46.7218 25.3421C46.7218 20.6718 51.4468 16.8656 57.2546 16.8656C63.0624 16.8656 67.7874 20.6718 67.7874 25.3421C67.7497 26.5927 67.4133 27.8162 66.8063 28.9102C66.1994 30.0043 65.3394 30.9373 64.2983 31.6312L62.428 37.5046C62.3903 37.6115 62.3209 37.7043 62.229 37.7708C62.1372 37.8372 62.0273 37.8741 61.914 37.8765ZM60.5468 32.2875C60.6618 32.2891 60.7735 32.3269 60.8658 32.3957C60.9581 32.4644 61.0263 32.5605 61.0608 32.6703L61.9249 35.5249L63.3249 31.15C63.3576 31.0332 63.4314 30.9322 63.5327 30.8656C64.4626 30.2767 65.2366 29.472 65.7888 28.5199C66.3411 27.5678 66.6552 26.4964 66.7046 25.3968C66.7046 21.3171 62.4608 18.0031 57.2546 18.0031C52.0483 18.0031 47.7937 21.2843 47.7937 25.3968C47.7937 29.5093 52.0374 32.7906 57.2546 32.7906C58.319 32.7902 59.3784 32.6467 60.4046 32.364L60.5468 32.2875ZM33.739 30.4828C33.6431 30.4845 33.5485 30.4599 33.4656 30.4117C33.3827 30.3635 33.3146 30.2935 33.2686 30.2093L29.1452 22.9687C24.278 20.9234 21.2812 16.9531 21.2812 12.5015C21.2812 6.09214 27.6468 0.864014 35.4999 0.864014C43.353 0.864014 49.7186 6.09214 49.7186 12.5015C49.7186 18.9109 43.353 24.139 35.4999 24.139H34.9968L34.264 30.0234C34.2506 30.1364 34.2024 30.2425 34.1259 30.3268C34.0495 30.4111 33.9486 30.4694 33.8374 30.4937L33.739 30.4828ZM35.4999 1.94683C28.2374 1.94683 22.3749 6.68276 22.3749 12.5015C22.3749 16.5593 25.2077 20.1578 29.7577 21.9843C29.8734 22.0258 29.9704 22.1072 30.0312 22.214L33.4437 28.2625L34.0343 23.5046C34.0507 23.3674 34.1185 23.2415 34.224 23.1522C34.3295 23.0629 34.465 23.0169 34.603 23.0234H35.5437C42.8061 23.0234 48.6686 18.2875 48.6686 12.4578C48.6686 6.62808 42.7624 1.94683 35.4999 1.94683Z" fill="black"/>
</g>
<defs>
<clipPath id="clip0_11_200">
<rect width="70" height="70" fill="white" transform="translate(0.5)"/>
</clipPath>
</defs>
</svg>
