<svg width="70" height="70" viewBox="0 0 70 70" fill="none" xmlns="http://www.w3.org/2000/svg">
<g clip-path="url(#clip0_11_127)">
<path d="M60.6703 70H9.32966C8.8156 70 8.3781 69.5734 8.35622 69.0484C8.2031 65.275 8.95778 61.6656 10.7297 57.7062C11.8234 55.2562 13.6609 53.2547 15.9031 52.0844C19.414 50.2469 24.15 48.7922 26.0312 48.2453C26.6218 48.0703 27.2453 48.2453 27.7156 48.6937C31.0625 51.9203 37.7343 52.6531 42.339 48.6062C42.7875 48.2125 43.3781 48.0703 43.925 48.2234C45.8062 48.7703 50.575 50.225 54.1187 52.0844C56.3609 53.2547 58.1984 55.2562 59.2922 57.7062C61.0531 61.6656 61.8078 65.275 61.6656 69.0484C61.6218 69.5844 61.1953 70 60.6703 70ZM26.4687 49.2297C26.414 49.2297 26.3593 49.2406 26.3047 49.2515C24.4562 49.7875 19.7968 51.2203 16.3734 53.014C14.339 54.075 12.6765 55.9015 11.6703 58.1328C9.9531 61.9937 9.24216 65.3515 9.38435 69.0156L60.5937 68.9609C60.725 65.3187 60.025 61.9828 58.3078 58.1328C57.3125 55.8906 55.639 54.075 53.6047 53.014C50.1484 51.2094 45.4672 49.7656 43.6078 49.2297C43.4 49.175 43.1812 49.2297 42.9953 49.3937C37.964 53.8234 30.6359 53.0031 26.9609 49.4484C26.8297 49.3062 26.6437 49.2297 26.4687 49.2297Z" fill="black"/>
<path d="M28.197 70C28.0001 70 27.8141 69.8906 27.7266 69.7047L21.5798 56.6125C21.4048 56.2406 21.4376 55.8031 21.6782 55.4531L26.5235 48.5078C26.6876 48.2672 27.0157 48.2125 27.2454 48.3766C27.486 48.5406 27.5407 48.8688 27.3766 49.0984L22.5313 56.0328C22.5204 56.0547 22.4985 56.0984 22.5204 56.1422L28.6673 69.2453C28.7876 69.5078 28.6782 69.8141 28.4157 69.9344C28.3501 69.9781 28.2735 70 28.197 70Z" fill="black"/>
<path d="M29.9357 57.5313C29.9247 57.5313 29.9247 57.5313 29.9357 57.5313C29.7935 57.5313 29.6513 57.4766 29.5638 57.3673L24.5325 52.1063C24.3357 51.8985 24.3357 51.5704 24.5435 51.3735C24.7513 51.1766 25.0794 51.1876 25.2763 51.3844L29.9466 56.2626L34.6388 51.5485C34.8466 51.3407 35.1747 51.3407 35.3716 51.5485C35.5794 51.7563 35.5794 52.0844 35.3716 52.2813L30.3075 57.3782C30.1982 57.4766 30.0669 57.5313 29.9357 57.5313Z" fill="black"/>
<path d="M41.8032 70.0001C41.7267 70.0001 41.6501 69.9891 41.5845 69.9454C41.322 69.8251 41.2126 69.5079 41.3329 69.2563L47.4798 56.1641C47.5017 56.1094 47.4907 56.0766 47.4689 56.0438L42.6235 49.1094C42.4595 48.8688 42.5142 48.5516 42.7548 48.3876C42.9845 48.2235 43.3126 48.2782 43.4767 48.5188L48.322 55.4532C48.5626 55.7922 48.5954 56.2407 48.4204 56.6125L42.2845 69.7047C42.186 69.8907 42.0001 70.0001 41.8032 70.0001Z" fill="black"/>
<path d="M40.0749 57.5312C39.9327 57.5312 39.8015 57.4765 39.703 57.378L34.628 52.2812C34.4202 52.0733 34.4202 51.7452 34.628 51.5374C34.8358 51.3296 35.164 51.3405 35.3608 51.5374L40.053 56.2515L44.7233 51.3734C44.9202 51.1655 45.2593 51.1546 45.4562 51.3624C45.664 51.5593 45.6749 51.8874 45.4671 52.0952L40.4358 57.3562C40.3483 57.4765 40.2171 57.5312 40.0749 57.5312Z" fill="black"/>
<path d="M31.7079 70C31.6861 70 31.6642 70 31.6532 70C31.3689 69.9672 31.1611 69.7156 31.1939 69.4203L32.4407 58.1875L30.822 56.0219C30.647 55.7922 30.7017 55.4641 30.9314 55.2891C31.1611 55.1141 31.4892 55.1578 31.6642 55.3984L33.4033 57.7281C33.4798 57.8375 33.5236 57.9687 33.5017 58.1L32.2329 69.5406C32.2001 69.8031 31.9704 70 31.7079 70Z" fill="black"/>
<path d="M38.2922 69.9999C38.0297 69.9999 37.8 69.803 37.7781 69.5405L36.5094 58.0999C36.4984 57.9686 36.5313 57.8374 36.6078 57.728L38.3469 55.3983C38.5219 55.1687 38.85 55.1249 39.0797 55.289C39.3094 55.464 39.3531 55.7921 39.1891 56.0218L37.5703 58.1874L38.8172 69.4202C38.85 69.7046 38.6422 69.9671 38.3578 69.9999C38.3359 69.9999 38.3141 69.9999 38.2922 69.9999Z" fill="black"/>
<path d="M37.0232 58.5593H32.9654C32.6811 58.5593 32.4404 58.3296 32.4404 58.0343C32.4404 57.739 32.6701 57.5093 32.9654 57.5093H37.0232C37.3076 57.5093 37.5482 57.739 37.5482 58.0343C37.5482 58.3296 37.3186 58.5593 37.0232 58.5593Z" fill="black"/>
<path d="M40.6113 46.1015H29.3895C28.4926 46.1015 27.7598 45.3687 27.7598 44.4718V39.2328C27.7598 38.9484 27.9895 38.7078 28.2848 38.7078H41.7379C42.0223 38.7078 42.2629 38.9375 42.2629 39.2328V44.4718C42.252 45.3687 41.5191 46.1015 40.6113 46.1015ZM28.7988 39.7468V44.4718C28.7988 44.8 29.0613 45.0625 29.3895 45.0625H40.6113C40.9395 45.0625 41.202 44.8 41.202 44.4718V39.7468H28.7988Z" fill="black"/>
<path d="M28.2736 39.747C28.0111 39.747 27.7814 39.5392 27.7595 39.2657C27.7595 39.2329 27.3876 35.4267 24.5439 32.7361C22.1376 30.4611 20.5736 28.197 19.7861 25.8017C18.1017 20.7267 19.2939 14.4486 22.8048 9.80012C25.933 5.67668 30.3298 3.522 35.208 3.74075C35.4923 3.75168 35.722 3.99231 35.7002 4.28762C35.6892 4.572 35.4705 4.79075 35.1533 4.79075C30.6361 4.59387 26.5455 6.59543 23.6361 10.4345C20.322 14.8095 19.1955 20.7157 20.7705 25.4736C21.5033 27.6939 22.9689 29.8267 25.2548 31.9814C28.4048 34.9454 28.7767 39.0032 28.7986 39.1782C28.8205 39.4626 28.6126 39.7142 28.3283 39.747C28.3064 39.747 28.2845 39.747 28.2736 39.747Z" fill="black"/>
<path d="M41.7267 39.747C41.6939 39.747 41.672 39.747 41.6392 39.736C41.3548 39.6923 41.1579 39.4188 41.2017 39.1345C41.2345 38.9595 41.8907 34.9235 44.997 31.9704C47.2501 29.8157 48.7048 27.6938 49.4376 25.4626C51.0126 20.661 49.8751 14.722 46.5392 10.336C43.6626 6.56259 39.6376 4.59384 35.2079 4.79072C34.8798 4.79072 34.672 4.5829 34.661 4.28759C34.6501 4.00322 34.8688 3.75165 35.1532 3.74072C39.922 3.52197 44.2751 5.64384 47.3704 9.71259C50.9032 14.361 52.1064 20.6829 50.4329 25.8017C49.6454 28.197 48.1032 30.461 45.7189 32.736C42.886 35.4376 42.2407 39.2657 42.2407 39.2985C42.197 39.561 41.9782 39.747 41.7267 39.747Z" fill="black"/>
<path d="M16.1551 30.133C15.9582 30.133 15.7832 30.0236 15.6848 29.8486C15.5535 29.5861 15.6629 29.2799 15.9145 29.1486L17.916 28.1533C18.1676 28.022 18.4848 28.1314 18.616 28.383C18.7473 28.6455 18.6379 28.9517 18.3863 29.083L16.3848 30.0783C16.3082 30.1111 16.2317 30.133 16.1551 30.133Z" fill="black"/>
<path d="M16.7127 18.4297C16.6908 18.4297 16.6689 18.4297 16.6471 18.4297L14.4486 18.1672C14.1642 18.1344 13.9564 17.8719 13.9892 17.5875C14.0221 17.3031 14.2955 17.1062 14.5689 17.1281L16.7674 17.3906C17.0517 17.4234 17.2596 17.6859 17.2267 17.9703C17.1939 18.2437 16.9752 18.4297 16.7127 18.4297Z" fill="black"/>
<path d="M20.9785 8.48761C20.8582 8.48761 20.7269 8.44386 20.6285 8.35636L18.9004 6.82511C18.6816 6.62823 18.6598 6.30011 18.8566 6.09229C19.0426 5.87354 19.3816 5.86261 19.5894 6.04854L21.3176 7.57979C21.5363 7.77667 21.5582 8.10479 21.3613 8.31261C21.2629 8.42198 21.1207 8.48761 20.9785 8.48761Z" fill="black"/>
<path d="M29.9689 3.08443C29.7502 3.08443 29.5533 2.95318 29.4767 2.73443L28.7548 0.689121C28.6564 0.415683 28.7986 0.120371 29.072 0.0219332C29.3455 -0.0765043 29.6408 0.0656832 29.7392 0.339121L30.4611 2.38443C30.5595 2.65787 30.4173 2.95318 30.1439 3.05162C30.0892 3.0735 30.0236 3.08443 29.9689 3.08443Z" fill="black"/>
<path d="M53.8455 30.1328C53.7689 30.1328 53.6924 30.1109 53.6158 30.0781L51.6142 29.0828C51.3517 28.9515 51.2533 28.6453 51.3845 28.3828C51.5158 28.1203 51.822 28.0218 52.0845 28.1531L54.0861 29.1484C54.3486 29.2797 54.447 29.5859 54.3158 29.8484C54.2283 30.0234 54.0424 30.1328 53.8455 30.1328Z" fill="black"/>
<path d="M53.2876 18.4296C53.0251 18.4296 52.8064 18.2328 52.7736 17.9703C52.7408 17.6859 52.9376 17.4234 53.233 17.3906L55.4314 17.1281C55.7158 17.0953 55.9783 17.2921 56.0111 17.5875C56.0439 17.8718 55.847 18.1343 55.5517 18.1671L53.3533 18.4296C53.3314 18.4296 53.3095 18.4296 53.2876 18.4296Z" fill="black"/>
<path d="M49.0219 8.48761C48.8797 8.48761 48.7375 8.43292 48.6281 8.31261C48.4312 8.09386 48.4531 7.76573 48.6719 7.57979L50.4 6.04854C50.6187 5.86261 50.9469 5.87354 51.1328 6.09229C51.3297 6.31104 51.3078 6.63917 51.0891 6.82511L49.3609 8.35636C49.2625 8.44386 49.1422 8.48761 49.0219 8.48761Z" fill="black"/>
<path d="M40.0312 3.08451C39.9765 3.08451 39.9109 3.07358 39.8562 3.0517C39.5828 2.95326 39.4406 2.65795 39.539 2.38451L40.2609 0.339202C40.3593 0.0657643 40.6546 -0.0654857 40.9281 0.0220143C41.2015 0.120452 41.3437 0.415764 41.2453 0.689202L40.5234 2.73451C40.4468 2.95326 40.25 3.08451 40.0312 3.08451Z" fill="black"/>
<path d="M29.9141 15.5533C29.8266 15.5533 29.7391 15.5314 29.6625 15.4877C28.8313 15.0174 28.2625 14.2408 28.0657 13.2892C27.825 12.1845 28.0985 10.9705 28.8313 9.96423C29.8485 8.56423 31.6422 7.87516 33.2938 8.26891C34.8141 8.62985 35.9078 9.80016 36.0828 11.2549C36.225 12.4908 35.6563 13.5845 34.5953 14.1095C34.3438 14.2408 34.0266 14.1314 33.8953 13.8798C33.7641 13.6174 33.8735 13.3111 34.125 13.1799C34.7922 12.8517 35.1313 12.1736 35.0328 11.3861C34.9453 10.6205 34.3657 9.60329 33.0422 9.29704C31.7844 9.00173 30.4282 9.52673 29.6625 10.5877C29.1047 11.3533 28.8969 12.2611 29.0719 13.0814C29.2141 13.7377 29.6078 14.2736 30.1657 14.5908C30.4172 14.733 30.5047 15.0502 30.3625 15.3017C30.275 15.4549 30.1 15.5533 29.9141 15.5533Z" fill="black"/>
<path d="M29.7281 22.422C29.7062 22.422 29.6953 22.422 29.6734 22.422C26.7968 22.1267 25.55 20.0595 25.3312 18.222C25.0906 16.133 26.075 13.6064 28.4156 12.797C28.689 12.6986 28.9843 12.8517 29.0828 13.1252C29.1812 13.3986 29.0281 13.6939 28.7547 13.7924C26.9281 14.4158 26.1734 16.4392 26.3593 18.1127C26.5781 19.972 27.8468 21.197 29.7718 21.3939C30.0562 21.4267 30.264 21.6783 30.2422 21.9627C30.2203 22.2142 29.9906 22.422 29.7281 22.422Z" fill="black"/>
<path d="M29.6298 28.3392C28.1423 28.3392 26.8626 27.6174 26.1079 26.3377C25.047 24.533 25.2439 22.1267 26.6001 20.3658C26.7751 20.1361 27.1032 20.0924 27.3329 20.2674C27.5626 20.4424 27.6064 20.7705 27.4314 21.0002C26.3486 22.4111 26.1736 24.3908 27.0048 25.8127C27.6611 26.9392 28.8204 27.4642 30.1767 27.2674C30.4611 27.2345 30.7236 27.4205 30.7673 27.7049C30.8111 27.9892 30.6142 28.2517 30.3298 28.2955C30.1001 28.3283 29.8595 28.3392 29.6298 28.3392Z" fill="black"/>
<path d="M32.6158 30.7892C32.5064 30.7892 32.3971 30.7892 32.2877 30.7782C30.8111 30.6579 29.2908 29.6954 29.2143 27.836C29.2033 27.5517 29.4221 27.3001 29.7174 27.2892C30.0346 27.2673 30.2533 27.497 30.2643 27.7923C30.3189 29.1048 31.4346 29.6626 32.3861 29.7392C33.4689 29.8267 34.7924 29.3454 35.0877 28.0657L35.033 12.086C35.033 11.8017 35.2627 11.561 35.558 11.561C35.8424 11.561 36.083 11.7907 36.083 12.086L36.1377 28.1313C36.1377 28.1642 36.1377 28.2079 36.1268 28.2407C35.7439 29.9579 34.1361 30.7892 32.6158 30.7892Z" fill="black"/>
<path d="M41.267 15.5424C41.0811 15.5424 40.9061 15.444 40.8186 15.2799C40.6764 15.0284 40.7639 14.7112 41.0155 14.569C41.5842 14.2518 41.967 13.7159 42.1092 13.0596C42.2842 12.2393 42.0655 11.3424 41.5186 10.5768C40.742 9.50495 39.3858 8.99088 38.1389 9.2862C36.9467 9.55963 36.3014 10.3909 36.1045 11.069C36.0826 11.1237 36.0717 11.1784 36.0608 11.2221C36.017 11.5065 35.7436 11.7034 35.4592 11.6596C35.1748 11.6159 34.978 11.3424 35.0217 11.0581C35.0436 10.9487 35.0655 10.8503 35.0983 10.7518C35.4592 9.53776 36.5311 8.57526 37.8983 8.26901C39.5498 7.8862 41.3436 8.56432 42.3608 9.96432C43.0936 10.9706 43.367 12.1737 43.1264 13.2784C42.9186 14.2299 42.3498 15.0065 41.5295 15.4768C41.442 15.5206 41.3545 15.5424 41.267 15.5424Z" fill="black"/>
<path d="M41.453 22.4219C41.1905 22.4219 40.9608 22.225 40.939 21.9516C40.9061 21.6672 41.114 21.4047 41.4093 21.3829C43.3233 21.186 44.603 19.961 44.8218 18.1016C45.0186 16.4282 44.253 14.4157 42.4265 13.7813C42.153 13.6829 42.0108 13.3875 42.0983 13.1141C42.1968 12.8407 42.4811 12.6985 42.7655 12.786C45.1061 13.5954 46.0905 16.1219 45.8499 18.211C45.6421 20.0485 44.3843 22.1157 41.5077 22.411C41.4968 22.4219 41.4749 22.4219 41.453 22.4219Z" fill="black"/>
<path d="M41.5513 28.3392C41.3216 28.3392 41.0919 28.3173 40.8513 28.2845C40.5669 28.2407 40.3701 27.9782 40.4138 27.6939C40.4576 27.4095 40.731 27.2236 41.0044 27.2564C42.3607 27.4532 43.52 26.9282 44.1763 25.8017C45.0075 24.3798 44.8326 22.4001 43.7497 20.9892C43.5747 20.7595 43.6185 20.4314 43.8482 20.2564C44.0779 20.0814 44.406 20.1251 44.581 20.3548C45.9372 22.1267 46.1341 24.522 45.0732 26.3267C44.3185 27.6173 43.0388 28.3392 41.5513 28.3392Z" fill="black"/>
<path d="M38.5654 30.8002C37.0561 30.8002 35.4373 29.958 35.0764 28.2408C35.0217 27.9564 35.1967 27.683 35.4811 27.6174C35.7654 27.5627 36.0389 27.7377 36.1045 28.0221C36.3779 29.3346 37.7123 29.8267 38.817 29.7502C39.7576 29.6736 40.8842 29.1158 40.9389 27.8033C40.9498 27.5189 41.2014 27.2892 41.4858 27.3002C41.7701 27.3111 41.9998 27.5517 41.9889 27.8471C41.9123 29.7064 40.3811 30.6689 38.9155 30.7892C38.7951 30.7892 38.6858 30.8002 38.5654 30.8002Z" fill="black"/>
<path d="M37.3627 15.8595C37.2315 15.8595 37.1111 15.8485 36.9799 15.8267C35.7549 15.597 35.1424 14.2954 35.1205 14.2407C35.0002 13.9782 35.1096 13.672 35.3721 13.5517C35.6346 13.4314 35.9408 13.5407 36.0611 13.8032C36.0721 13.8251 36.4877 14.6673 37.1768 14.7985C37.6143 14.886 38.1283 14.6564 38.6861 14.1204C38.894 13.9235 39.2221 13.9345 39.419 14.1423C39.6158 14.3501 39.6049 14.6782 39.3971 14.8751C38.719 15.5314 38.0299 15.8595 37.3627 15.8595Z" fill="black"/>
<path d="M33.2499 19.2829C32.4077 19.2829 31.7952 19.0204 31.4233 18.5172C30.7124 17.5329 31.2811 16.0782 31.3467 15.9141C31.4561 15.6516 31.7624 15.5204 32.0249 15.6297C32.2874 15.7391 32.4186 16.0454 32.3092 16.3079C32.1999 16.5813 31.9483 17.4672 32.2655 17.8938C32.5061 18.2219 33.0749 18.2547 33.5124 18.2219C33.7749 18.1891 34.0483 18.4188 34.0702 18.7032C34.092 18.9876 33.8733 19.2391 33.5889 19.261C33.4795 19.2719 33.3592 19.2829 33.2499 19.2829Z" fill="black"/>
<path d="M33.2499 25.5282C32.4077 25.5282 31.7952 25.2657 31.4233 24.7626C30.7124 23.7782 31.2811 22.3235 31.3467 22.1595C31.4561 21.897 31.7624 21.7657 32.0249 21.8751C32.2874 21.9845 32.4186 22.2907 32.3092 22.5532C32.1999 22.8267 31.9483 23.7126 32.2655 24.1392C32.5061 24.4673 33.0749 24.5001 33.5124 24.4673C33.7749 24.4454 34.0483 24.6642 34.0702 24.9485C34.092 25.2329 33.8733 25.4845 33.5889 25.5064C33.4795 25.5282 33.3592 25.5282 33.2499 25.5282Z" fill="black"/>
<path d="M37.9092 22.4221C37.6358 22.4221 37.417 22.2143 37.3951 21.9409C37.3733 21.6565 37.5811 21.405 37.8764 21.3831C38.5436 21.3284 39.3967 21.1534 39.6483 20.6175C39.9217 20.0596 39.4842 19.2065 39.3201 18.944C39.1561 18.7034 39.2217 18.3753 39.4623 18.2221C39.7029 18.0581 40.0201 18.1237 40.1842 18.3643C40.2279 18.43 41.1686 19.8628 40.5889 21.0659C40.217 21.8425 39.3311 22.3018 37.9639 22.4112C37.942 22.4221 37.9201 22.4221 37.9092 22.4221Z" fill="black"/>
</g>
<defs>
<clipPath id="clip0_11_127">
<rect width="70" height="70" fill="white"/>
</clipPath>
</defs>
</svg>
