<svg width="71" height="70" viewBox="0 0 71 70" fill="none" xmlns="http://www.w3.org/2000/svg">
<mask id="path-1-inside-1_11_208" fill="white">
<path fill-rule="evenodd" clip-rule="evenodd" d="M26.0415 51.1078C25.7643 51.1803 25.5157 51.3265 25.3179 51.5244C25.0294 51.8129 24.8503 52.2096 24.8503 52.6452C24.8503 53.0808 25.0294 53.4775 25.3179 53.766C25.6064 54.0545 26.0031 54.2336 26.4387 54.2336H44.5612C44.9966 54.2336 45.3935 54.0545 45.682 53.766C45.9705 53.4775 46.1496 53.0808 46.1496 52.6452C46.1496 52.2096 45.9705 51.8129 45.682 51.5244C45.4843 51.3267 45.2355 51.1803 44.9584 51.1078C44.9456 51.1049 44.9329 51.1016 44.9203 51.0984C44.8048 51.0712 44.6845 51.0568 44.5612 51.0568L26.0415 51.1078ZM44.5611 51.0568L26.0794 51.0984C26.1949 51.0712 26.3153 51.0568 26.4386 51.0568H44.5611ZM27.0425 48.4712H43.9573V47.4707C43.9573 46.6363 44.127 45.8477 44.4595 45.1196C44.7895 44.3974 45.2754 43.7538 45.9107 43.2035C47.6279 41.7162 49.0233 39.8687 49.9781 37.7798C50.8943 35.7755 51.4049 33.5392 51.4049 31.1752C51.4049 26.7829 49.6247 22.8065 46.7465 19.9284C43.8683 17.0503 39.892 15.27 35.4997 15.27C31.1075 15.27 27.1311 17.0502 24.253 19.9284C21.3749 22.8066 19.5946 26.7829 19.5946 31.1752C19.5946 33.5393 20.1052 35.7755 21.0214 37.7798C21.9762 39.8688 23.3716 41.7162 25.0887 43.2035C25.7241 43.7538 26.2101 44.3974 26.54 45.1196C26.8727 45.8477 27.0422 46.6363 27.0422 47.4707V48.4712H27.0425ZM43.473 56.8191H43.4703H27.5293H27.5266C26.7666 56.8191 26.2896 57.2094 26.0888 57.7087C26.0034 57.9212 25.9607 58.1606 25.9607 58.4073C25.9607 58.6541 26.0035 58.8935 26.0888 59.1061C26.2896 59.6055 26.7666 59.9957 27.5266 59.9957H43.473C44.2331 59.9957 44.7101 59.6055 44.9108 59.1061C44.9962 58.8937 45.0389 58.6543 45.0389 58.4075C45.0389 58.1607 44.9961 57.9213 44.9108 57.7087C44.7101 57.2093 44.2331 56.8191 43.473 56.8191ZM30.5288 62.5815C30.6412 63.1865 31.094 63.7559 31.7683 64.2096C32.7026 64.838 34.0203 65.2269 35.4997 65.2269C36.9792 65.2269 38.2969 64.838 39.2312 64.2096C39.9056 63.7559 40.3583 63.1865 40.4707 62.5815H30.5287H30.5288ZM43.0736 62.5815C42.9692 64.0845 42.0688 65.4067 40.6654 66.3507C39.3228 67.2539 37.4949 67.8125 35.4997 67.8125C33.5046 67.8125 31.6767 67.2539 30.3341 66.3507C28.9307 65.4067 28.0303 64.0843 27.9259 62.5815H27.5264C25.5421 62.5815 24.2627 61.4781 23.695 60.0657C23.4818 59.5349 23.375 58.9675 23.375 58.4075C23.375 57.8475 23.4818 57.2802 23.695 56.7494C23.7913 56.5098 23.9082 56.2792 24.0453 56.0612C23.8467 55.9217 23.6607 55.7653 23.4896 55.5941C22.7336 54.8382 22.2644 53.7945 22.2644 52.6452C22.2644 51.4959 22.7336 50.4522 23.4896 49.6963C23.7743 49.4115 24.0999 49.1675 24.4566 48.9739V47.4707C24.4566 46.9963 24.3688 46.5668 24.1968 46.1902C24.0221 45.8078 23.756 45.4594 23.4019 45.1527C21.4091 43.4267 19.7887 41.28 18.678 38.8501C17.6061 36.5053 17.0088 33.9057 17.0088 31.1749C17.0088 26.069 19.0786 21.4463 22.4248 18.1001C25.771 14.7539 30.3937 12.6841 35.4996 12.6841C40.6055 12.6841 45.2282 14.7539 48.5744 18.1001C51.9206 21.4463 53.9904 26.069 53.9904 31.1749C53.9904 33.9056 53.3931 36.5053 52.3212 38.8501C51.2105 41.28 49.5901 43.4267 47.5973 45.1527C47.2433 45.4593 46.9771 45.8078 46.8024 46.1902C46.6304 46.5668 46.5427 46.9961 46.5427 47.4707V48.9739C46.8994 49.1675 47.225 49.4115 47.5097 49.6963C48.2656 50.4522 48.7348 51.4959 48.7348 52.6452C48.7348 53.7945 48.2656 54.8382 47.5097 55.5941C47.3385 55.7653 47.1526 55.9217 46.9539 56.0612C47.091 56.2792 47.2079 56.5097 47.3042 56.7494C47.5175 57.2802 47.6242 57.8476 47.6242 58.4076C47.6242 58.9676 47.5175 59.5349 47.3042 60.0659C46.7365 61.4782 45.4571 62.5816 43.4728 62.5816H43.0733L43.0736 62.5815ZM34.8546 41.5342L34.3938 40.0971C34.2496 39.6478 33.8818 39.3323 33.4528 39.2343C33.1228 39.1419 32.7949 39.0279 32.4713 38.8939C32.151 38.7611 31.8258 38.6002 31.4979 38.4128C31.081 38.1743 30.587 38.1938 30.2007 38.421L28.9243 39.0776L27.5932 37.7465L28.2832 36.4052C28.4909 36.0022 28.4656 35.5405 28.2563 35.1739L28.2579 35.173C28.0706 34.8452 27.9097 34.5203 27.7771 34.2002C27.6358 33.8594 27.5169 33.5139 27.422 33.1659C27.3032 32.7296 26.9737 32.4073 26.5732 32.2782L26.5737 32.2771L25.1366 31.8164V29.932L26.5737 29.4712C27.023 29.327 27.3385 28.9592 27.4365 28.5302C27.5289 28.2002 27.6428 27.8723 27.7769 27.5487C27.9097 27.2284 28.0706 26.9032 28.2579 26.5754C28.4963 26.1585 28.4769 25.6646 28.2497 25.2782L27.593 24.0018L28.9241 22.6707L30.2655 23.3609C30.6685 23.5685 31.1302 23.5432 31.4968 23.3339L31.4977 23.3356C31.8254 23.1483 32.1505 22.9873 32.4706 22.8546L32.4748 22.8528L32.4757 22.8546C32.8231 22.7106 33.1669 22.5917 33.5049 22.4995C33.9412 22.3807 34.2635 22.0512 34.3926 21.6508L34.3937 21.6512L34.8544 20.2141H36.3849V24.8616C36.1881 24.8415 35.9918 24.8313 35.7966 24.8313C34.128 24.8313 32.6173 25.5078 31.5237 26.6014C30.4301 27.695 29.7536 29.2059 29.7536 30.8744C29.7536 32.5429 30.4301 34.0536 31.5237 35.1472C32.6173 36.2409 34.128 36.9173 35.7966 36.9173C35.9918 36.9173 36.1881 36.9071 36.3849 36.887V41.5345H34.8544L34.8546 41.5342ZM38.9706 42.827C38.9706 43.541 38.3918 44.1198 37.6778 44.1198H33.9156C33.3025 44.1198 32.789 43.693 32.6563 43.1203L32.1444 41.5237C31.9221 41.4478 31.7044 41.3656 31.4917 41.2774C31.2702 41.1857 31.0556 41.0893 30.8482 40.9886L29.2659 41.8026C28.7546 42.0662 28.1489 41.9545 27.763 41.5684L27.7611 41.5703L25.1008 38.91C24.6709 38.4802 24.6072 37.8228 24.9095 37.3253L25.6825 35.8228C25.5819 35.6155 25.4855 35.4011 25.3939 35.1798C25.3057 34.9669 25.2236 34.749 25.1475 34.5265L23.4503 33.9824C22.9034 33.8069 22.5551 33.3004 22.5552 32.7552H22.5514V28.993C22.5514 28.3799 22.9782 27.8664 23.5508 27.7337L25.1474 27.2218C25.2233 26.9995 25.3055 26.7818 25.3936 26.5691C25.4854 26.3476 25.5818 26.133 25.6825 25.9256L24.8685 24.3432C24.6049 23.8319 24.7166 23.2262 25.1027 22.8402L25.1008 22.8383L27.7611 20.178C28.1909 19.7482 28.8484 19.6845 29.3458 19.9868L30.8482 20.7598C31.0541 20.6597 31.2671 20.564 31.4869 20.4728L31.4862 20.471C31.6987 20.383 31.9184 20.3004 32.1449 20.2236L32.6888 18.5274C32.8644 17.9806 33.3708 17.6322 33.916 17.6323V17.6285H37.6782C38.3922 17.6285 38.971 18.2074 38.971 18.9213V26.511C38.971 27.2249 38.3922 27.8038 37.6782 27.8038C37.4779 27.8038 37.2883 27.7583 37.119 27.6769C36.9123 27.5909 36.7056 27.5259 36.5019 27.4839C36.2878 27.4399 36.0525 27.4168 35.7971 27.4168C34.8423 27.4168 33.9778 27.8037 33.3523 28.4293C32.7268 29.0549 32.3398 29.9193 32.3398 30.8742C32.3398 31.8292 32.7267 32.6936 33.3523 33.319C33.9779 33.9445 34.8423 34.3316 35.7971 34.3316C36.0525 34.3316 36.2878 34.3085 36.5019 34.2645C36.7057 34.2225 36.9125 34.1574 37.119 34.0715C37.2883 33.9902 37.4779 33.9447 37.6782 33.9447C38.3922 33.9447 38.971 34.5235 38.971 35.2375V42.8271L38.9706 42.827ZM36.7927 7.41494C36.7927 8.12889 36.2138 8.70775 35.4999 8.70775C34.7859 8.70775 34.2071 8.12889 34.2071 7.41494V3.48031C34.2071 2.76637 34.7859 2.1875 35.4999 2.1875C36.2138 2.1875 36.7927 2.76637 36.7927 3.48031V7.41494ZM24.3671 10.0557C24.7214 10.672 24.5088 11.4588 23.8925 11.813C23.2761 12.1673 22.4893 11.9547 22.1351 11.3384L20.1678 7.93078C19.8136 7.31445 20.0262 6.52764 20.6425 6.1734C21.2588 5.81916 22.0457 6.03176 22.3999 6.64809L24.3671 10.0557ZM14.9258 18.5477C15.5421 18.9019 15.7547 19.6887 15.4004 20.3051C15.0462 20.9214 14.2594 21.134 13.6431 20.7797L10.2356 18.8125C9.6193 18.4583 9.4067 17.6714 9.76094 17.0551C10.1152 16.4388 10.902 16.2262 11.5183 16.5804L14.9258 18.5477ZM11.0023 30.6197C11.7163 30.6197 12.2952 31.1985 12.2952 31.9125C12.2952 32.6264 11.7163 33.2053 11.0023 33.2053H7.06772C6.35377 33.2053 5.7749 32.6264 5.7749 31.9125C5.7749 31.1985 6.35377 30.6197 7.06772 30.6197H11.0023ZM13.6431 43.0452C14.2594 42.691 15.0462 42.9036 15.4004 43.5199C15.7547 44.1362 15.5421 44.923 14.9258 45.2773L11.5182 47.2445C10.9019 47.5988 10.115 47.3862 9.7608 46.7698C9.4067 46.1535 9.61916 45.3667 10.2355 45.0125L13.6431 43.0452ZM56.074 45.2773C55.4577 44.923 55.2451 44.1362 55.5993 43.5199C55.9536 42.9036 56.7404 42.691 57.3567 43.0452L60.7643 45.0125C61.3806 45.3667 61.5932 46.1535 61.239 46.7698C60.8847 47.3862 60.0979 47.5988 59.4816 47.2445L56.074 45.2773ZM59.9974 33.2053C59.2835 33.2053 58.7046 32.6264 58.7046 31.9125C58.7046 31.1985 59.2835 30.6197 59.9974 30.6197H63.932C64.646 30.6197 65.2249 31.1985 65.2249 31.9125C65.2249 32.6264 64.646 33.2053 63.932 33.2053H59.9974ZM57.3567 20.7797C56.7404 21.134 55.9536 20.9214 55.5993 20.3051C55.2451 19.6887 55.4577 18.9019 56.074 18.5477L59.4816 16.5804C60.0979 16.2262 60.8847 16.4388 61.239 17.0551C61.5932 17.6714 61.3806 18.4583 60.7643 18.8125L57.3567 20.7797ZM48.8647 11.3384C48.5104 11.9547 47.7236 12.1673 47.1073 11.813C46.491 11.4588 46.2784 10.672 46.6326 10.0557L48.6 6.64809C48.9542 6.03176 49.7411 5.81916 50.3574 6.1734C50.9737 6.52764 51.1863 7.31445 50.8321 7.93078L48.8647 11.3384Z"/>
</mask>
<path fill-rule="evenodd" clip-rule="evenodd" d="M26.0415 51.1078C25.7643 51.1803 25.5157 51.3265 25.3179 51.5244C25.0294 51.8129 24.8503 52.2096 24.8503 52.6452C24.8503 53.0808 25.0294 53.4775 25.3179 53.766C25.6064 54.0545 26.0031 54.2336 26.4387 54.2336H44.5612C44.9966 54.2336 45.3935 54.0545 45.682 53.766C45.9705 53.4775 46.1496 53.0808 46.1496 52.6452C46.1496 52.2096 45.9705 51.8129 45.682 51.5244C45.4843 51.3267 45.2355 51.1803 44.9584 51.1078C44.9456 51.1049 44.9329 51.1016 44.9203 51.0984C44.8048 51.0712 44.6845 51.0568 44.5612 51.0568L26.0415 51.1078ZM44.5611 51.0568L26.0794 51.0984C26.1949 51.0712 26.3153 51.0568 26.4386 51.0568H44.5611ZM27.0425 48.4712H43.9573V47.4707C43.9573 46.6363 44.127 45.8477 44.4595 45.1196C44.7895 44.3974 45.2754 43.7538 45.9107 43.2035C47.6279 41.7162 49.0233 39.8687 49.9781 37.7798C50.8943 35.7755 51.4049 33.5392 51.4049 31.1752C51.4049 26.7829 49.6247 22.8065 46.7465 19.9284C43.8683 17.0503 39.892 15.27 35.4997 15.27C31.1075 15.27 27.1311 17.0502 24.253 19.9284C21.3749 22.8066 19.5946 26.7829 19.5946 31.1752C19.5946 33.5393 20.1052 35.7755 21.0214 37.7798C21.9762 39.8688 23.3716 41.7162 25.0887 43.2035C25.7241 43.7538 26.2101 44.3974 26.54 45.1196C26.8727 45.8477 27.0422 46.6363 27.0422 47.4707V48.4712H27.0425ZM43.473 56.8191H43.4703H27.5293H27.5266C26.7666 56.8191 26.2896 57.2094 26.0888 57.7087C26.0034 57.9212 25.9607 58.1606 25.9607 58.4073C25.9607 58.6541 26.0035 58.8935 26.0888 59.1061C26.2896 59.6055 26.7666 59.9957 27.5266 59.9957H43.473C44.2331 59.9957 44.7101 59.6055 44.9108 59.1061C44.9962 58.8937 45.0389 58.6543 45.0389 58.4075C45.0389 58.1607 44.9961 57.9213 44.9108 57.7087C44.7101 57.2093 44.2331 56.8191 43.473 56.8191ZM30.5288 62.5815C30.6412 63.1865 31.094 63.7559 31.7683 64.2096C32.7026 64.838 34.0203 65.2269 35.4997 65.2269C36.9792 65.2269 38.2969 64.838 39.2312 64.2096C39.9056 63.7559 40.3583 63.1865 40.4707 62.5815H30.5287H30.5288ZM43.0736 62.5815C42.9692 64.0845 42.0688 65.4067 40.6654 66.3507C39.3228 67.2539 37.4949 67.8125 35.4997 67.8125C33.5046 67.8125 31.6767 67.2539 30.3341 66.3507C28.9307 65.4067 28.0303 64.0843 27.9259 62.5815H27.5264C25.5421 62.5815 24.2627 61.4781 23.695 60.0657C23.4818 59.5349 23.375 58.9675 23.375 58.4075C23.375 57.8475 23.4818 57.2802 23.695 56.7494C23.7913 56.5098 23.9082 56.2792 24.0453 56.0612C23.8467 55.9217 23.6607 55.7653 23.4896 55.5941C22.7336 54.8382 22.2644 53.7945 22.2644 52.6452C22.2644 51.4959 22.7336 50.4522 23.4896 49.6963C23.7743 49.4115 24.0999 49.1675 24.4566 48.9739V47.4707C24.4566 46.9963 24.3688 46.5668 24.1968 46.1902C24.0221 45.8078 23.756 45.4594 23.4019 45.1527C21.4091 43.4267 19.7887 41.28 18.678 38.8501C17.6061 36.5053 17.0088 33.9057 17.0088 31.1749C17.0088 26.069 19.0786 21.4463 22.4248 18.1001C25.771 14.7539 30.3937 12.6841 35.4996 12.6841C40.6055 12.6841 45.2282 14.7539 48.5744 18.1001C51.9206 21.4463 53.9904 26.069 53.9904 31.1749C53.9904 33.9056 53.3931 36.5053 52.3212 38.8501C51.2105 41.28 49.5901 43.4267 47.5973 45.1527C47.2433 45.4593 46.9771 45.8078 46.8024 46.1902C46.6304 46.5668 46.5427 46.9961 46.5427 47.4707V48.9739C46.8994 49.1675 47.225 49.4115 47.5097 49.6963C48.2656 50.4522 48.7348 51.4959 48.7348 52.6452C48.7348 53.7945 48.2656 54.8382 47.5097 55.5941C47.3385 55.7653 47.1526 55.9217 46.9539 56.0612C47.091 56.2792 47.2079 56.5097 47.3042 56.7494C47.5175 57.2802 47.6242 57.8476 47.6242 58.4076C47.6242 58.9676 47.5175 59.5349 47.3042 60.0659C46.7365 61.4782 45.4571 62.5816 43.4728 62.5816H43.0733L43.0736 62.5815ZM34.8546 41.5342L34.3938 40.0971C34.2496 39.6478 33.8818 39.3323 33.4528 39.2343C33.1228 39.1419 32.7949 39.0279 32.4713 38.8939C32.151 38.7611 31.8258 38.6002 31.4979 38.4128C31.081 38.1743 30.587 38.1938 30.2007 38.421L28.9243 39.0776L27.5932 37.7465L28.2832 36.4052C28.4909 36.0022 28.4656 35.5405 28.2563 35.1739L28.2579 35.173C28.0706 34.8452 27.9097 34.5203 27.7771 34.2002C27.6358 33.8594 27.5169 33.5139 27.422 33.1659C27.3032 32.7296 26.9737 32.4073 26.5732 32.2782L26.5737 32.2771L25.1366 31.8164V29.932L26.5737 29.4712C27.023 29.327 27.3385 28.9592 27.4365 28.5302C27.5289 28.2002 27.6428 27.8723 27.7769 27.5487C27.9097 27.2284 28.0706 26.9032 28.2579 26.5754C28.4963 26.1585 28.4769 25.6646 28.2497 25.2782L27.593 24.0018L28.9241 22.6707L30.2655 23.3609C30.6685 23.5685 31.1302 23.5432 31.4968 23.3339L31.4977 23.3356C31.8254 23.1483 32.1505 22.9873 32.4706 22.8546L32.4748 22.8528L32.4757 22.8546C32.8231 22.7106 33.1669 22.5917 33.5049 22.4995C33.9412 22.3807 34.2635 22.0512 34.3926 21.6508L34.3937 21.6512L34.8544 20.2141H36.3849V24.8616C36.1881 24.8415 35.9918 24.8313 35.7966 24.8313C34.128 24.8313 32.6173 25.5078 31.5237 26.6014C30.4301 27.695 29.7536 29.2059 29.7536 30.8744C29.7536 32.5429 30.4301 34.0536 31.5237 35.1472C32.6173 36.2409 34.128 36.9173 35.7966 36.9173C35.9918 36.9173 36.1881 36.9071 36.3849 36.887V41.5345H34.8544L34.8546 41.5342ZM38.9706 42.827C38.9706 43.541 38.3918 44.1198 37.6778 44.1198H33.9156C33.3025 44.1198 32.789 43.693 32.6563 43.1203L32.1444 41.5237C31.9221 41.4478 31.7044 41.3656 31.4917 41.2774C31.2702 41.1857 31.0556 41.0893 30.8482 40.9886L29.2659 41.8026C28.7546 42.0662 28.1489 41.9545 27.763 41.5684L27.7611 41.5703L25.1008 38.91C24.6709 38.4802 24.6072 37.8228 24.9095 37.3253L25.6825 35.8228C25.5819 35.6155 25.4855 35.4011 25.3939 35.1798C25.3057 34.9669 25.2236 34.749 25.1475 34.5265L23.4503 33.9824C22.9034 33.8069 22.5551 33.3004 22.5552 32.7552H22.5514V28.993C22.5514 28.3799 22.9782 27.8664 23.5508 27.7337L25.1474 27.2218C25.2233 26.9995 25.3055 26.7818 25.3936 26.5691C25.4854 26.3476 25.5818 26.133 25.6825 25.9256L24.8685 24.3432C24.6049 23.8319 24.7166 23.2262 25.1027 22.8402L25.1008 22.8383L27.7611 20.178C28.1909 19.7482 28.8484 19.6845 29.3458 19.9868L30.8482 20.7598C31.0541 20.6597 31.2671 20.564 31.4869 20.4728L31.4862 20.471C31.6987 20.383 31.9184 20.3004 32.1449 20.2236L32.6888 18.5274C32.8644 17.9806 33.3708 17.6322 33.916 17.6323V17.6285H37.6782C38.3922 17.6285 38.971 18.2074 38.971 18.9213V26.511C38.971 27.2249 38.3922 27.8038 37.6782 27.8038C37.4779 27.8038 37.2883 27.7583 37.119 27.6769C36.9123 27.5909 36.7056 27.5259 36.5019 27.4839C36.2878 27.4399 36.0525 27.4168 35.7971 27.4168C34.8423 27.4168 33.9778 27.8037 33.3523 28.4293C32.7268 29.0549 32.3398 29.9193 32.3398 30.8742C32.3398 31.8292 32.7267 32.6936 33.3523 33.319C33.9779 33.9445 34.8423 34.3316 35.7971 34.3316C36.0525 34.3316 36.2878 34.3085 36.5019 34.2645C36.7057 34.2225 36.9125 34.1574 37.119 34.0715C37.2883 33.9902 37.4779 33.9447 37.6782 33.9447C38.3922 33.9447 38.971 34.5235 38.971 35.2375V42.8271L38.9706 42.827ZM36.7927 7.41494C36.7927 8.12889 36.2138 8.70775 35.4999 8.70775C34.7859 8.70775 34.2071 8.12889 34.2071 7.41494V3.48031C34.2071 2.76637 34.7859 2.1875 35.4999 2.1875C36.2138 2.1875 36.7927 2.76637 36.7927 3.48031V7.41494ZM24.3671 10.0557C24.7214 10.672 24.5088 11.4588 23.8925 11.813C23.2761 12.1673 22.4893 11.9547 22.1351 11.3384L20.1678 7.93078C19.8136 7.31445 20.0262 6.52764 20.6425 6.1734C21.2588 5.81916 22.0457 6.03176 22.3999 6.64809L24.3671 10.0557ZM14.9258 18.5477C15.5421 18.9019 15.7547 19.6887 15.4004 20.3051C15.0462 20.9214 14.2594 21.134 13.6431 20.7797L10.2356 18.8125C9.6193 18.4583 9.4067 17.6714 9.76094 17.0551C10.1152 16.4388 10.902 16.2262 11.5183 16.5804L14.9258 18.5477ZM11.0023 30.6197C11.7163 30.6197 12.2952 31.1985 12.2952 31.9125C12.2952 32.6264 11.7163 33.2053 11.0023 33.2053H7.06772C6.35377 33.2053 5.7749 32.6264 5.7749 31.9125C5.7749 31.1985 6.35377 30.6197 7.06772 30.6197H11.0023ZM13.6431 43.0452C14.2594 42.691 15.0462 42.9036 15.4004 43.5199C15.7547 44.1362 15.5421 44.923 14.9258 45.2773L11.5182 47.2445C10.9019 47.5988 10.115 47.3862 9.7608 46.7698C9.4067 46.1535 9.61916 45.3667 10.2355 45.0125L13.6431 43.0452ZM56.074 45.2773C55.4577 44.923 55.2451 44.1362 55.5993 43.5199C55.9536 42.9036 56.7404 42.691 57.3567 43.0452L60.7643 45.0125C61.3806 45.3667 61.5932 46.1535 61.239 46.7698C60.8847 47.3862 60.0979 47.5988 59.4816 47.2445L56.074 45.2773ZM59.9974 33.2053C59.2835 33.2053 58.7046 32.6264 58.7046 31.9125C58.7046 31.1985 59.2835 30.6197 59.9974 30.6197H63.932C64.646 30.6197 65.2249 31.1985 65.2249 31.9125C65.2249 32.6264 64.646 33.2053 63.932 33.2053H59.9974ZM57.3567 20.7797C56.7404 21.134 55.9536 20.9214 55.5993 20.3051C55.2451 19.6887 55.4577 18.9019 56.074 18.5477L59.4816 16.5804C60.0979 16.2262 60.8847 16.4388 61.239 17.0551C61.5932 17.6714 61.3806 18.4583 60.7643 18.8125L57.3567 20.7797ZM48.8647 11.3384C48.5104 11.9547 47.7236 12.1673 47.1073 11.813C46.491 11.4588 46.2784 10.672 46.6326 10.0557L48.6 6.64809C48.9542 6.03176 49.7411 5.81916 50.3574 6.1734C50.9737 6.52764 51.1863 7.31445 50.8321 7.93078L48.8647 11.3384Z" stroke="black" stroke-width="2" mask="url(#path-1-inside-1_11_208)"/>
</svg>
