<svg width="70" height="70" viewBox="0 0 70 70" fill="none" xmlns="http://www.w3.org/2000/svg">
<path d="M18.665 25.7847L18.3232 25.6704L17.3916 25.3599C16.995 25.2129 16.7674 24.7988 16.8633 24.396L16.8867 24.3149L16.8877 24.312L17.7627 21.7573L17.7646 21.7534C17.8704 21.436 18.1665 21.2204 18.5146 21.2202C18.547 21.2202 18.5959 21.2241 18.6514 21.2339C18.7014 21.2427 18.7435 21.2541 18.7695 21.2622L19.7471 21.6108L20.1025 21.7378L20.3223 21.4312C20.4852 21.2031 20.6312 21.0305 20.7949 20.894L21.0996 20.6411L20.9219 20.2866L20.4727 19.3872C20.3858 19.1867 20.3641 18.9755 20.4189 18.7642C20.5301 18.5238 20.6652 18.3752 20.8184 18.3071L20.8262 18.3032L20.834 18.3003L23.2588 17.1206C23.4373 17.0494 23.5262 17.02 23.625 17.02C23.8717 17.02 24.1259 17.1662 24.2754 17.3823L24.333 17.479L24.7881 18.3882L24.9463 18.7046L25.2969 18.6616C25.5409 18.6311 25.7901 18.6304 26.0752 18.6304H26.4229L26.5439 18.3042L26.8936 17.3589L26.8994 17.3433C27.0052 17.0258 27.3021 16.8101 27.6504 16.8101C27.7251 16.8101 27.7639 16.8107 27.7979 16.8149C27.8257 16.8184 27.8387 16.8236 27.8467 16.8276L27.876 16.8423L27.9082 16.853L30.4629 17.728L30.4746 17.7319C30.8688 17.8565 31.1059 18.3308 30.9609 18.7261L30.6113 19.6714L30.4785 20.0298L30.7891 20.2515C31.0191 20.4158 31.1632 20.5715 31.4248 20.7896L31.668 20.9917L31.9551 20.8589L32.8643 20.439L32.8887 20.4272L32.9121 20.4136C32.9892 20.3673 33.0687 20.3452 33.2148 20.3452C33.4776 20.3452 33.7212 20.4761 33.8623 20.6919L33.916 20.7896L33.9219 20.8013L35.1064 23.2065C35.1967 23.4142 35.2173 23.6332 35.1553 23.8521C35.0932 24.038 34.9441 24.2075 34.7617 24.2886L34.752 24.2925L34.7412 24.2974L33.5146 24.9106L33.5586 25.2622C33.5891 25.5062 33.5898 25.7555 33.5898 26.0405V26.4048L33.9375 26.5161L34.9023 26.8267C35.3097 26.98 35.5284 27.4369 35.3984 27.8491L34.5332 30.3745C34.3934 30.7183 34.0816 30.9301 33.7402 30.9302C33.6652 30.9302 33.6258 30.9295 33.5918 30.9253C33.5643 30.9218 33.5519 30.9166 33.5439 30.9126L33.5117 30.897L33.4785 30.8853L32.5332 30.5708L32.209 30.4624L31.9912 30.7251C31.8147 30.9369 31.6535 31.1302 31.4619 31.3218L31.207 31.5767L31.8184 32.7993L31.8506 32.8774C31.9818 33.2437 31.8402 33.6409 31.502 33.8433L31.4258 33.8833L31.4189 33.8862L29.0283 35.064C28.9201 35.1052 28.7799 35.1304 28.665 35.1304C28.3719 35.1304 28.0827 34.9629 27.9189 34.6636L27.5088 33.7759L27.3555 33.4438L26.9932 33.4888C26.7078 33.5244 26.4585 33.5552 26.2148 33.5552H25.8672L25.7461 33.8813L25.3965 34.8267L25.3906 34.8423C25.2847 35.1596 24.9878 35.3755 24.6396 35.3755C24.565 35.3755 24.5261 35.3748 24.4922 35.3706C24.4644 35.3671 24.4514 35.3619 24.4434 35.3579L24.4141 35.3433L24.3818 35.3315L21.834 34.4585C21.4029 34.2972 21.19 33.835 21.3291 33.4575L21.333 33.4478L21.3359 33.438L21.6514 32.4585L21.7539 32.1372L21.4951 31.9214C21.2833 31.7449 21.0901 31.5828 20.8984 31.3911L20.6436 31.1362L19.4111 31.7524L19.3945 31.7612L19.3779 31.771C19.3009 31.8172 19.2214 31.8403 19.0752 31.8403C18.775 31.8403 18.5002 31.6689 18.374 31.396L17.9199 31.605L18.374 31.395L18.3682 31.3843L17.1787 28.9692C16.9907 28.5644 17.1245 28.1364 17.4678 27.9302L17.5391 27.8921L18.7754 27.2739L18.7314 26.9233C18.6958 26.638 18.665 26.3886 18.665 26.145V25.7847Z" stroke="black"/>
<path d="M26.1455 21.0801C28.9184 21.0802 31.1748 23.3106 31.1748 26.0752C31.1747 28.8439 28.9142 31.1053 26.1455 31.1055C23.3767 31.1055 21.1153 28.844 21.1152 26.0752C21.1152 23.3105 23.3725 21.0801 26.1455 21.0801Z" fill="#98E041" stroke="black"/>
<path d="M41.3032 38.7839C41.5028 38.5844 41.768 38.6094 41.9106 38.7664L41.9185 38.7761L41.9282 38.7849L46.7212 43.5427V43.5437C46.8063 43.6288 46.855 43.7482 46.855 43.8552C46.855 43.9355 46.8283 44.0229 46.7788 44.0974L46.7212 44.1667L44.2368 46.6511C44.1268 46.7612 44.0465 46.7849 43.9253 46.7849C43.7727 46.7849 43.6932 46.7443 43.644 46.6853L43.6294 46.6667L43.6128 46.6501L38.8315 41.9041C38.6732 41.726 38.6712 41.4847 38.77 41.3298L38.8188 41.2683L41.3032 38.7839Z" stroke="black"/>
<path d="M63.6265 57.5435C64.0592 57.9762 64.3198 58.585 64.3198 59.2202C64.3198 59.7425 64.1227 60.2747 63.7817 60.6909L63.6265 60.8618L60.8267 63.6616C60.3622 64.1261 59.7897 64.355 59.1499 64.355C58.5103 64.3549 57.9385 64.1259 57.4741 63.6616L55.1665 61.354L61.2856 55.2026L63.6265 57.5435ZM47.8804 42.7798C48.4401 42.7798 48.9481 42.9552 49.3774 43.3101L49.5562 43.4731L51.8628 45.7798L45.7124 51.9302L43.4058 49.5942L43.4038 49.5913L43.2495 49.4214C42.9097 49.0063 42.7104 48.4704 42.7104 47.9146C42.7106 47.3925 42.9079 46.8609 43.2485 46.4448L43.4038 46.2739L46.2036 43.4731C46.6681 43.0087 47.2406 42.7798 47.8804 42.7798ZM26.1802 5.64502C31.4781 5.64502 36.4839 7.63302 40.3013 11.2671L40.6665 11.6235C44.5626 15.5196 46.6802 20.6424 46.6802 26.145C46.6802 31.4426 44.6923 36.4473 41.0278 40.2642L40.6685 40.6304L40.6665 40.6313C36.8046 44.4932 31.6467 46.645 26.1802 46.645C20.8844 46.645 15.8778 44.626 12.0591 40.9888L11.6938 40.6313C7.83199 36.7695 5.68018 31.6115 5.68018 26.145C5.68018 20.645 7.82986 15.5205 11.6929 11.6226L11.6938 11.6235C15.5542 7.76324 20.7116 5.64502 26.1802 5.64502ZM26.1802 10.8755C22.2532 10.8755 18.5295 12.3704 15.6704 15.0942L15.397 15.3618C9.5539 21.2049 9.4636 30.6571 15.1216 36.645L15.396 36.9272L15.3989 36.9312C18.2912 39.7872 22.127 41.3804 26.1802 41.3804C30.1413 41.3804 33.832 39.8846 36.688 37.1948L36.9614 36.9312L36.9634 36.9282C39.8586 34.033 41.4155 30.1956 41.4155 26.145C41.4155 22.0607 39.8596 18.2208 36.9614 15.3589H36.9604C34.0682 12.4681 30.268 10.8755 26.1802 10.8755Z" stroke="black"/>
<path d="M60.5781 54.4949L54.458 60.6472L46.417 52.6394L52.5703 46.4871L60.5781 54.4949Z" stroke="black"/>
</svg>
